<?xml version="1.0" encoding="UTF-8"?>
<svg version="1.1" xmlns="http://www.w3.org/2000/svg" width="600" height="200">
<path d="M0 0 C198 0 396 0 600 0 C600 66 600 132 600 200 C402 200 204 200 0 200 C0 134 0 68 0 0 Z " fill="#FEFEFE" transform="translate(0,0)"/>
<path d="M0 0 C10.22537523 8.77885873 18.27154065 21.45696428 19.40234375 35.0625 C20.22543387 49.35465059 19.29035546 61.22501447 10.40234375 73.0625 C7.38473293 76.15316286 4.2884561 79.11944382 0.40234375 81.0625 C0.01028807 83.35354269 0.01028807 83.35354269 -0.09765625 86 C-0.3762822 90.84112595 -0.3762822 90.84112595 -2.59765625 93.0625 C-5.53862362 93.23789436 -8.38418974 93.29382375 -11.32421875 93.2578125 C-12.18703461 93.2549826 -13.04985046 93.25215271 -13.93881226 93.24923706 C-16.70023345 93.23802333 -19.46133275 93.21291684 -22.22265625 93.1875 C-24.09244324 93.17747173 -25.9622353 93.16834562 -27.83203125 93.16015625 C-32.42069734 93.13808012 -37.00912218 93.10354234 -41.59765625 93.0625 C-41.59765625 95.0425 -41.59765625 97.0225 -41.59765625 99.0625 C-40.51484375 99.1553125 -40.51484375 99.1553125 -39.41015625 99.25 C-35.69098708 100.32442665 -34.0498813 102.11982994 -31.59765625 105.0625 C-31.59765625 106.0525 -31.59765625 107.0425 -31.59765625 108.0625 C-43.14765625 108.0625 -54.69765625 108.0625 -66.59765625 108.0625 C-65.59765625 102.0625 -65.59765625 102.0625 -63.78515625 100.1875 C-61.59765625 99.0625 -61.59765625 99.0625 -57.59765625 99.0625 C-57.59765625 97.0825 -57.59765625 95.1025 -57.59765625 93.0625 C-65.84765625 93.0625 -74.09765625 93.0625 -82.59765625 93.0625 C-82.59765625 99.0025 -82.59765625 104.9425 -82.59765625 111.0625 C-84.57765625 111.0625 -86.55765625 111.0625 -88.59765625 111.0625 C-88.59765625 105.1225 -88.59765625 99.1825 -88.59765625 93.0625 C-93.21765625 93.0625 -97.83765625 93.0625 -102.59765625 93.0625 C-102.70078125 94.238125 -102.80390625 95.41375 -102.91015625 96.625 C-103.45926435 101.83320717 -104.56029934 106.91570196 -105.75708008 112.00805664 C-106.12241724 113.67647987 -106.36959705 115.36984046 -106.59765625 117.0625 C-105.93765625 117.7225 -105.27765625 118.3825 -104.59765625 119.0625 C-106.24765625 119.0625 -107.89765625 119.0625 -109.59765625 119.0625 C-110.41199768 116.21089609 -110.71646867 113.69623869 -110.6953125 110.734375 C-110.69208984 109.93515625 -110.68886719 109.1359375 -110.68554688 108.3125 C-110.67716797 107.4875 -110.66878906 106.6625 -110.66015625 105.8125 C-110.65564453 104.97203125 -110.65113281 104.1315625 -110.64648438 103.265625 C-110.63473586 101.19788599 -110.61680147 99.13018376 -110.59765625 97.0625 C-110.87480469 98.03832031 -111.15195313 99.01414062 -111.4375 100.01953125 C-111.80335025 101.30469751 -112.16923761 102.58985321 -112.53515625 103.875 C-112.89480469 105.13957031 -113.25445312 106.40414062 -113.625 107.70703125 C-114.24256886 109.83751982 -114.89620256 111.95813892 -115.59765625 114.0625 C-116.25765625 114.3925 -116.91765625 114.7225 -117.59765625 115.0625 C-118.24978917 117.08713255 -118.24978917 117.08713255 -118.59765625 119.0625 C-120.24765625 119.0625 -121.89765625 119.0625 -123.59765625 119.0625 C-123.29859375 118.53914062 -122.99953125 118.01578125 -122.69140625 117.4765625 C-121.34522343 114.5053447 -120.74959812 111.63343245 -120.09765625 108.4375 C-119.84242188 107.19226563 -119.5871875 105.94703125 -119.32421875 104.6640625 C-119.08445313 103.47554688 -118.8446875 102.28703125 -118.59765625 101.0625 C-118.39914063 100.14210938 -118.200625 99.22171875 -117.99609375 98.2734375 C-116.78080471 92.55976513 -116.06831052 86.88375017 -115.59765625 81.0625 C-114.93765625 81.0625 -114.27765625 81.0625 -113.59765625 81.0625 C-113.59765625 82.3825 -113.59765625 83.7025 -113.59765625 85.0625 C-111.97222545 84.92154936 -110.34731574 84.77457913 -108.72265625 84.625 C-107.81773437 84.54378906 -106.9128125 84.46257812 -105.98046875 84.37890625 C-103.58654764 84.19260715 -103.58654764 84.19260715 -101.59765625 83.0625 C-101.74061516 81.66636935 -101.88717183 80.27060692 -102.03515625 78.875 C-102.11636719 78.09769531 -102.19757813 77.32039063 -102.28125 76.51953125 C-102.60538537 74.00248004 -103.0729813 71.5447857 -103.59765625 69.0625 C-102.74300781 68.65257813 -101.88835937 68.24265625 -101.0078125 67.8203125 C-99.90308594 67.28148438 -98.79835937 66.74265625 -97.66015625 66.1875 C-96.55800781 65.65382813 -95.45585937 65.12015625 -94.3203125 64.5703125 C-91.50361114 63.34590155 -91.50361114 63.34590155 -90.59765625 61.0625 C-91.1596875 61.20558594 -91.72171875 61.34867187 -92.30078125 61.49609375 C-94.64311078 62.07370902 -96.99183284 62.60533307 -99.34765625 63.125 C-100.54648438 63.38990234 -100.54648438 63.38990234 -101.76953125 63.66015625 C-102.3728125 63.79292969 -102.97609375 63.92570312 -103.59765625 64.0625 C-103.67176996 58.56326251 -103.72624089 53.06431521 -103.76245117 47.56469727 C-103.77754498 45.69355201 -103.79802214 43.82244217 -103.82397461 41.95141602 C-103.86033218 39.26309474 -103.8773764 36.57524087 -103.890625 33.88671875 C-103.90610886 33.04912521 -103.92159271 32.21153168 -103.93754578 31.34855652 C-103.93923999 25.51220788 -103.93923999 25.51220788 -102.28608704 23.33576965 C-99.51998812 21.24981515 -96.7868697 21.78206293 -93.41015625 21.875 C-91.50169922 21.91560547 -91.50169922 21.91560547 -89.5546875 21.95703125 C-88.09095703 22.00923828 -88.09095703 22.00923828 -86.59765625 22.0625 C-86.46101563 21.33160156 -86.324375 20.60070312 -86.18359375 19.84765625 C-83.62953307 7.70735447 -76.04179334 -1.18555962 -66.22265625 -8.5 C-44.96311196 -21.16605539 -18.34085626 -13.67979655 0 0 Z " fill="#E1E7F7" transform="translate(354.59765625,54.9375)"/>
<path d="M0 0 C4.27308106 2.98773828 6.91467963 6.51787389 9.75 10.8125 C17.42674801 21.91733772 27.52873028 28.08881183 40.25 32.5625 C44.58766187 34.10974846 48.22117592 36.39317963 52 39 C52.76828125 39.50402344 53.5365625 40.00804687 54.328125 40.52734375 C60.23632414 44.68460308 64.06308897 48.93542111 66 56 C66.83982022 63.78668264 67.07901548 71.15308116 63 78 C62.46375 79.03125 61.9275 80.0625 61.375 81.125 C55.77392105 87.90525346 48.40104979 89.69842891 40 91 C39.67 94.63 39.34 98.26 39 102 C41.31 102.33 43.62 102.66 46 103 C46 103.99 46 104.98 46 106 C38.5345605 108.77476512 31.93285519 109.36801906 24 109 C24.2784375 110.11375 24.2784375 110.11375 24.5625 111.25 C25 114 25 114 24 118 C18.72 118 13.44 118 8 118 C8.66 116.35 9.32 114.7 10 113 C10.66 113 11.32 113 12 113 C12 109.37 12 105.74 12 102 C11.01 102.99 10.02 103.98 9 105 C6.66511536 105.36076355 6.66511536 105.36076355 3.88598633 105.34057617 C2.84513382 105.34034958 1.80428131 105.34012299 0.73188782 105.33988953 C-0.95104118 105.31666374 -0.95104118 105.31666374 -2.66796875 105.29296875 C-3.81791824 105.28872391 -4.96786774 105.28447906 -6.15266418 105.28010559 C-9.83117941 105.26329189 -13.50914992 105.22563377 -17.1875 105.1875 C-19.67902856 105.17245669 -22.17056568 105.15876767 -24.66210938 105.14648438 C-30.77492593 105.11337953 -36.88742405 105.06315305 -43 105 C-42.67 103.35 -42.34 101.7 -42 100 C-40.19196899 99.98598145 -40.19196899 99.98598145 -38.34741211 99.97167969 C-33.85371636 99.93165484 -29.36069625 99.86586151 -24.86743164 99.79248047 C-22.92676506 99.76434315 -20.98598543 99.74309274 -19.04516602 99.72900391 C-16.24697288 99.70747382 -13.45012871 99.66077282 -10.65234375 99.609375 C-9.36129982 99.60753204 -9.36129982 99.60753204 -8.04417419 99.60565186 C-2.23822761 99.46609046 1.18142575 98.26355353 6 95 C6.02712066 93.56260487 6.04645067 92.12506137 6.0625 90.6875 C6.07410156 89.88699219 6.08570313 89.08648437 6.09765625 88.26171875 C6.09657855 85.83138666 6.09657855 85.83138666 5 83 C4.60167969 83.433125 4.20335937 83.86625 3.79296875 84.3125 C2.99826172 85.1478125 2.99826172 85.1478125 2.1875 86 C1.40439453 86.8353125 1.40439453 86.8353125 0.60546875 87.6875 C-1 89 -1 89 -4 89 C-4 89.66 -4 90.32 -4 91 C-4.66 91 -5.32 91 -6 91 C-5.75220958 85.17692516 -3.9164302 82.09153628 -0.546875 77.40625 C1.07004843 74.89103578 2.05454745 72.4965481 3.0625 69.6875 C4.61940514 65.44853137 6.32146076 63.68433945 10 61 C10.87943404 58.36539052 10.87943404 58.36539052 11 56 C12.65 56.33 14.3 56.66 16 57 C16.04898438 55.98679688 16.09796875 54.97359375 16.1484375 53.9296875 C16.22352564 52.57810089 16.29907081 51.22653962 16.375 49.875 C16.4059375 49.20984375 16.436875 48.5446875 16.46875 47.859375 C16.72050682 43.57950898 17.57890029 40.02395601 19 36 C13.25255142 35.92573372 7.5053834 35.87134274 1.75756836 35.83520508 C-0.19690823 35.82013699 -2.15135112 35.79967876 -4.10571289 35.77368164 C-6.91821623 35.73721135 -9.73027174 35.72025378 -12.54296875 35.70703125 C-13.41398727 35.69154739 -14.2850058 35.67606354 -15.18241882 35.66011047 C-19.87923537 35.65881334 -23.37220756 35.67892438 -27 39 C-29.64910363 43.88111116 -30.65802441 48.6291733 -31.38671875 54.12109375 C-31.49345413 54.86585464 -31.60018951 55.61061554 -31.7101593 56.37794495 C-32.04511313 58.72994402 -32.36651883 61.08355772 -32.6875 63.4375 C-32.91381632 65.04374646 -33.14102149 66.64986796 -33.36914062 68.25585938 C-33.92304107 72.16920403 -34.46480915 76.08405461 -35 80 C-35.90766113 80.01458252 -36.81532227 80.02916504 -37.75048828 80.04418945 C-41.1390931 80.10548149 -44.52691689 80.17967576 -47.91503906 80.26245117 C-49.37749708 80.29557135 -50.84007895 80.32364305 -52.30273438 80.34643555 C-54.41329403 80.38022175 -56.52273186 80.4325438 -58.6328125 80.48828125 C-60.53377686 80.52755737 -60.53377686 80.52755737 -62.47314453 80.56762695 C-67.42261661 81.17440496 -70.74802934 82.72617994 -74.23828125 86.27734375 C-76.21107644 89.32620904 -77.19702765 92.07361167 -78.1875 95.5625 C-78.51105469 96.67753906 -78.83460938 97.79257813 -79.16796875 98.94140625 C-79.80659548 101.28903409 -80.42767246 103.63553573 -81 106 C-81.66 106 -82.32 106 -83 106 C-83 105.34 -83 104.68 -83 104 C-83.89525391 103.61714844 -83.89525391 103.61714844 -84.80859375 103.2265625 C-90.20244017 100.20754686 -93.64909621 93.81361877 -95.52734375 88.06640625 C-96.94407597 81.87259347 -96.53929375 76.69361657 -93.4140625 71.12890625 C-90.580776 66.86332298 -87.5231875 62.72146212 -84 59 C-83.34 59 -82.68 59 -82 59 C-81.73960937 58.43667969 -81.47921875 57.87335938 -81.2109375 57.29296875 C-79.88099816 54.77466426 -78.31499004 52.60394938 -76.625 50.3125 C-72.57545838 44.55964604 -70.01041752 38.82118412 -67.63671875 32.23046875 C-63.75791868 21.49661834 -59.85625889 11.64858722 -51 4 C-50.34 4 -49.68 4 -49 4 C-49 3.34 -49 2.68 -49 2 C-33.00855544 -6.60816058 -16.34954194 -9.98594777 0 0 Z " fill="#E0E6F6" transform="translate(506,54)"/>
<path d="M0 0 C1.00933594 0.49757813 2.01867187 0.99515625 3.05859375 1.5078125 C12.37992014 6.51177049 19.40906524 13.05450439 25 22 C25.66 22.33 26.32 22.66 27 23 C28.0703125 25.36328125 28.0703125 25.36328125 29.125 28.3125 C29.47820312 29.27800781 29.83140625 30.24351563 30.1953125 31.23828125 C31 34 31 34 31 38 C35.62 37.67 40.24 37.34 45 37 C45 37.66 45 38.32 45 39 C42.734375 40.65625 42.734375 40.65625 39.75 42.5 C38.77546875 43.1084375 37.8009375 43.716875 36.796875 44.34375 C34.56209634 45.66713848 32.34283528 46.88436415 30 48 C30 48.66 30 49.32 30 50 C28.18407958 51.62234515 26.26839413 53.08169032 24.3359375 54.5625 C15.74966855 63.52208499 15.16707162 72.06055277 15.3125 83.875 C15.32383518 86.12081293 15.32643074 88.36580328 15.3120575 90.61160278 C15.30136007 92.63282185 15.31846466 94.65413204 15.3371582 96.67529297 C14.96716596 100.3237755 14.56698559 101.46073618 12 104 C9.37486267 104.49447632 9.37486267 104.49447632 6.18334961 104.48583984 C4.3915049 104.49506973 4.3915049 104.49506973 2.5634613 104.50448608 C1.27279251 104.49011505 -0.01787628 104.47574402 -1.34765625 104.4609375 C-2.68379031 104.45855297 -4.01992776 104.45764777 -5.35606384 104.4581604 C-8.15466333 104.45503329 -10.95275017 104.43847449 -13.7512207 104.41162109 C-17.34164987 104.3776079 -20.93151664 104.36999344 -24.52208805 104.37151146 C-27.28016039 104.37096815 -30.03810933 104.36000801 -32.79614067 104.34550858 C-34.76488111 104.33603506 -36.73364752 104.33258276 -38.70240784 104.32919312 C-39.89381882 104.31643341 -41.0852298 104.30367371 -42.31274414 104.29052734 C-43.36514786 104.28290375 -44.41755157 104.27528015 -45.50184631 104.26742554 C-48 104 -48 104 -50 102 C-50.125 99.375 -50.125 99.375 -50 97 C-49.22285645 96.97494385 -48.44571289 96.9498877 -47.64501953 96.92407227 C-44.13816931 96.80833204 -40.63160255 96.68550648 -37.125 96.5625 C-35.90167969 96.52318359 -34.67835937 96.48386719 -33.41796875 96.44335938 C-32.25136719 96.40146484 -31.08476563 96.35957031 -29.8828125 96.31640625 C-28.80402832 96.27974854 -27.72524414 96.24309082 -26.61376953 96.20532227 C-24.01930464 96.16623357 -24.01930464 96.16623357 -22 95 C-12.43 95 -2.86 95 7 95 C7 72.23 7 49.46 7 26 C1.72 26 -3.56 26 -9 26 C-9.33 27.32 -9.66 28.64 -10 30 C-17.59 30 -25.18 30 -33 30 C-33.495 28.02 -33.495 28.02 -34 26 C-36.97 26 -39.94 26 -43 26 C-43 26.66 -43 27.32 -43 28 C-43.99 28 -44.98 28 -46 28 C-46 46.15 -46 64.3 -46 83 C-41.05 83 -36.1 83 -31 83 C-27.77734375 89.0546875 -27.77734375 89.0546875 -27 91 C-27.33 91.66 -27.66 92.32 -28 93 C-30.62386487 89.93882432 -31 89.26826873 -31 85 C-32.10859375 85.01160156 -33.2171875 85.02320313 -34.359375 85.03515625 C-35.82291498 85.04453792 -37.28645678 85.05363771 -38.75 85.0625 C-39.47960937 85.07087891 -40.20921875 85.07925781 -40.9609375 85.08789062 C-44.55734353 85.10423793 -47.48454408 84.87886398 -51 84 C-51.33 80.04 -51.66 76.08 -52 72 C-52.495 73.485 -52.495 73.485 -53 75 C-57.99975446 73.84621051 -60.5234177 72.70087794 -64 69 C-65.96879323 67.93988057 -67.96435867 66.92529151 -70 66 C-69.85908936 67.0372522 -69.85908936 67.0372522 -69.71533203 68.09545898 C-68.75105722 76.68826618 -69.56873076 84.54579757 -70.875 93.0625 C-71.06191406 94.36638672 -71.24882813 95.67027344 -71.44140625 97.01367188 C-72.82165899 106.46497696 -72.82165899 106.46497696 -74 110 C-72.35 110 -70.7 110 -69 110 C-69.33 110.66 -69.66 111.32 -70 112 C-72.93774463 112.05390357 -75.87450232 112.0936255 -78.8125 112.125 C-79.64587891 112.14175781 -80.47925781 112.15851563 -81.33789062 112.17578125 C-82.14033203 112.18222656 -82.94277344 112.18867188 -83.76953125 112.1953125 C-84.87711792 112.21102295 -84.87711792 112.21102295 -86.00708008 112.22705078 C-88 112 -88 112 -91 110 C-90.50195326 105.21875125 -89.50633184 101.37638508 -87.5234375 96.9921875 C-86.3680746 92.59491079 -88.34757151 89.04535975 -90.4375 85.25 C-96.54986063 73.21960234 -97.12892719 57.84744701 -93 45 C-84.18270584 23.30074226 -69.78375877 7.97202522 -48.18359375 -1.1953125 C-33.98851256 -6.14317498 -13.51648972 -6.89075946 0 0 Z " fill="#E0E6F7" transform="translate(144,61)"/>
<path d="M0 0 C0.33 0 0.66 0 1 0 C1 19.47 1 38.94 1 59 C7.6 59.33 14.2 59.66 21 60 C21.99 62.31 22.98 64.62 24 67 C23.01 64.36 22.02 61.72 21 59 C16.05 58.67 11.1 58.34 6 58 C6 39.85 6 21.7 6 3 C6.99 3 7.98 3 9 3 C9 2.34 9 1.68 9 1 C11.97 1 14.94 1 18 1 C18.495 2.485 18.495 2.485 19 4 C26.59 4 34.18 4 42 4 C42.33 3.01 42.66 2.02 43 1 C48.28 1 53.56 1 59 1 C59 23.77 59 46.54 59 70 C48.90882461 70.63069846 39.0746284 71.14167446 29 71 C29 71.33 29 71.66 29 72 C20.09 72 11.18 72 2 72 C2.66 73.98 3.32 75.96 4 78 C11.77116308 78.06948809 19.54225348 78.12280502 27.31364918 78.15543652 C30.92218303 78.1710975 34.53050444 78.19234315 38.13891602 78.22631836 C41.62078122 78.25889717 45.10244201 78.27684975 48.58444786 78.28463173 C50.56042097 78.29287856 52.53631175 78.31630038 54.51216125 78.33988953 C55.71317978 78.34011612 56.9141983 78.34034271 58.15161133 78.34057617 C59.74045891 78.35056892 59.74045891 78.35056892 61.36140442 78.36076355 C64.32832545 77.95510951 65.20751967 77.33637946 67 75 C67 75.66 67 76.32 67 77 C70.3 77.33 73.6 77.66 77 78 C77 78.66 77 79.32 77 80 C75.56432267 80.32076956 74.12628018 80.63094808 72.6875 80.9375 C71.48673828 81.19853516 71.48673828 81.19853516 70.26171875 81.46484375 C59.29057664 83.2648994 48.28261946 83.18622668 37.1953125 83.18530273 C34.27068415 83.18748457 31.34643672 83.20567938 28.421875 83.22460938 C1.60898848 83.30449424 1.60898848 83.30449424 -5 80 C-5 79.34 -5 78.68 -5 78 C-2.03 77.505 -2.03 77.505 1 77 C0.67 76.01 0.34 75.02 0 74 C-0.721875 74.495 -1.44375 74.99 -2.1875 75.5 C-6.60005282 77.77538868 -11.33851577 77.1733385 -16.171875 77.0078125 C-18.95108298 76.78817371 -18.95108298 76.78817371 -21 78 C-20.90388428 77.31075439 -20.80776855 76.62150879 -20.70874023 75.91137695 C-18.03434487 57.99014303 -18.03434487 57.99014303 -19 40 C-17.72549553 40.59638333 -16.45553123 41.20247416 -15.1875 41.8125 C-14.47980469 42.14894531 -13.77210937 42.48539063 -13.04296875 42.83203125 C-10.97448349 44.01458783 -9.67300757 45.32699243 -8 47 C-6.19809386 47.97715609 -6.19809386 47.97715609 -4.3125 48.6875 C-3.219375 49.120625 -2.12625 49.55375 -1 50 C-1.33 49.01 -1.66 48.02 -2 47 C-1.34 47 -0.68 47 0 47 C0 31.49 0 15.98 0 0 Z " fill="#FAFAFB" transform="translate(92,86)"/>
<path d="M0 0 C6.043125 -0.185625 12.08625 -0.37125 18.3125 -0.5625 C21.13808472 -0.68540405 21.13808472 -0.68540405 24.02075195 -0.81079102 C32.27507139 -1.01691946 38.11145421 -0.88654113 44.73046875 4.41015625 C47.28588867 6.85571289 47.28588867 6.85571289 49 9 C49 9.66 49 10.32 49 11 C49.66 11 50.32 11 51 11 C51 30.47 51 49.94 51 70 C34.5 70 18 70 1 70 C0.67 46.9 0.34 23.8 0 0 Z " fill="#F7F9FA" transform="translate(276,73)"/>
<path d="M0 0 C7.59 0 15.18 0 23 0 C23 21.45 23 42.9 23 65 C47.09 65 71.18 65 96 65 C96 44.54 96 24.08 96 3 C93.36 3 90.72 3 88 3 C88 2.01 88 1.02 88 0 C89.79133978 -0.05391993 91.58313899 -0.09275571 93.375 -0.125 C94.87160156 -0.15980469 94.87160156 -0.15980469 96.3984375 -0.1953125 C99 0 99 0 101 2 C101.25396729 4.73266602 101.25396729 4.73266602 101.25878906 8.25390625 C101.26509338 9.56866943 101.27139771 10.88343262 101.27789307 12.23803711 C101.2743134 13.6795261 101.27021146 15.12101387 101.265625 16.5625 C101.26697168 18.03458724 101.26891223 19.50667405 101.27142334 20.97875977 C101.27437449 24.06563548 101.27007732 27.15239553 101.26074219 30.23925781 C101.24934756 34.20072129 101.25590709 38.16191378 101.26788712 42.12336731 C101.275106 45.16363577 101.27281768 48.20383973 101.26763153 51.24411011 C101.26629511 52.7049869 101.2679425 54.1658695 101.27259064 55.6267395 C101.27765606 57.66652315 101.26856979 59.70632726 101.25878906 61.74609375 C101.25719788 62.90810303 101.25560669 64.0701123 101.25396729 65.26733398 C101 68 101 68 99 70 C96.05903263 70.17539436 93.21346651 70.23132375 90.2734375 70.1953125 C89.41062164 70.1924826 88.54780579 70.18965271 87.65884399 70.18673706 C84.8974228 70.17552333 82.1363235 70.15041684 79.375 70.125 C77.50521301 70.11497173 75.63542095 70.10584562 73.765625 70.09765625 C69.17695891 70.07558012 64.58853407 70.04104234 60 70 C60 71.98 60 73.96 60 76 C61.0828125 76.0928125 61.0828125 76.0928125 62.1875 76.1875 C65.90666917 77.26192665 67.54777495 79.05732994 70 82 C70 82.99 70 83.98 70 85 C58.45 85 46.9 85 35 85 C36 79 36 79 37.8125 77.125 C40 76 40 76 44 76 C44 74.02 44 72.04 44 70 C35.75 70 27.5 70 19 70 C19 75.94 19 81.88 19 88 C17.02 88 15.04 88 13 88 C13 82.06 13 76.12 13 70 C8.38 70 3.76 70 -1 70 C-1.103125 71.175625 -1.20625 72.35125 -1.3125 73.5625 C-1.8616081 78.77070717 -2.96264309 83.85320196 -4.15942383 88.94555664 C-4.52476099 90.61397987 -4.7719408 92.30734046 -5 94 C-4.34 94.66 -3.68 95.32 -3 96 C-4.65 96 -6.3 96 -8 96 C-8.81434143 93.14839609 -9.11881242 90.63373869 -9.09765625 87.671875 C-9.09443359 86.87265625 -9.09121094 86.0734375 -9.08789062 85.25 C-9.07951172 84.425 -9.07113281 83.6 -9.0625 82.75 C-9.05798828 81.90953125 -9.05347656 81.0690625 -9.04882812 80.203125 C-9.03707961 78.13538599 -9.01914522 76.06768376 -9 74 C-9.27714844 74.97582031 -9.55429688 75.95164062 -9.83984375 76.95703125 C-10.205694 78.24219751 -10.57158136 79.52735321 -10.9375 80.8125 C-11.29714844 82.07707031 -11.65679687 83.34164062 -12.02734375 84.64453125 C-12.64491261 86.77501982 -13.29854631 88.89563892 -14 91 C-14.99 91.495 -14.99 91.495 -16 92 C-16.65213292 94.02463255 -16.65213292 94.02463255 -17 96 C-18.65 96 -20.3 96 -22 96 C-21.55140625 95.21496094 -21.55140625 95.21496094 -21.09375 94.4140625 C-19.74756718 91.4428447 -19.15194187 88.57093245 -18.5 85.375 C-18.24476563 84.12976563 -17.98953125 82.88453125 -17.7265625 81.6015625 C-17.48679688 80.41304688 -17.24703125 79.22453125 -17 78 C-16.80148438 77.07960938 -16.60296875 76.15921875 -16.3984375 75.2109375 C-15.18314846 69.49726513 -14.47065427 63.82125017 -14 58 C-13.34 58 -12.68 58 -12 58 C-12 59.32 -12 60.64 -12 62 C-10.3745692 61.85904936 -8.74965949 61.71207913 -7.125 61.5625 C-6.22007812 61.48128906 -5.31515625 61.40007812 -4.3828125 61.31640625 C-1.98889139 61.13010715 -1.98889139 61.13010715 0 60 C-0.14295891 58.60386935 -0.28951558 57.20810692 -0.4375 55.8125 C-0.51871094 55.03519531 -0.59992188 54.25789063 -0.68359375 53.45703125 C-1.00772912 50.93998004 -1.47532505 48.4822857 -2 46 C-1.14535156 45.59007812 -0.29070312 45.18015625 0.58984375 44.7578125 C1.69457031 44.21898437 2.79929688 43.68015625 3.9375 43.125 C5.03964844 42.59132812 6.14179688 42.05765625 7.27734375 41.5078125 C10.09404511 40.28340155 10.09404511 40.28340155 11 38 C10.43796875 38.14308594 9.8759375 38.28617188 9.296875 38.43359375 C6.95454547 39.01120902 4.60582341 39.54283307 2.25 40.0625 C1.45078125 40.23910156 0.6515625 40.41570312 -0.171875 40.59765625 C-1.07679688 40.79681641 -1.07679688 40.79681641 -2 41 C-2.0493521 35.48243524 -2.08569662 29.96499829 -2.10986328 24.44726562 C-2.11993534 22.56931318 -2.13359362 20.69137647 -2.15087891 18.81347656 C-2.17507453 16.1177991 -2.18647083 13.42232854 -2.1953125 10.7265625 C-2.20563507 9.88380768 -2.21595764 9.04105286 -2.22659302 8.17276001 C-2.22699144 6.11378753 -2.12257588 4.05532065 -2 2 C-1.34 1.34 -0.68 0.68 0 0 Z " fill="#98AAED" transform="translate(253,78)"/>
<path d="M0 0 C2.0625 0.4375 2.0625 0.4375 4 1 C3.0409375 1.2784375 3.0409375 1.2784375 2.0625 1.5625 C1.381875 2.036875 0.70125 2.51125 0 3 C-0.4067333 5.32166397 -0.74501373 7.65681039 -1 10 C0.91425781 10.07347656 0.91425781 10.07347656 2.8671875 10.1484375 C4.53648072 10.22346191 6.20575046 10.29900988 7.875 10.375 C9.13763672 10.42140625 9.13763672 10.42140625 10.42578125 10.46875 C11.63427734 10.52675781 11.63427734 10.52675781 12.8671875 10.5859375 C13.61081543 10.6173584 14.35444336 10.6487793 15.12060547 10.68115234 C17 11 17 11 19 13 C19.24050903 15.29055786 19.24050903 15.29055786 19.22705078 18.18408203 C19.22689972 19.26505157 19.22674866 20.34602112 19.22659302 21.45974731 C19.21627045 22.63060883 19.20594788 23.80147034 19.1953125 25.0078125 C19.1924826 26.20356903 19.18965271 27.39932556 19.18673706 28.63131714 C19.17551305 32.46264519 19.15040431 36.29374222 19.125 40.125 C19.11497308 42.71744455 19.10584673 45.30989275 19.09765625 47.90234375 C19.07556646 54.26830842 19.04206706 60.63413771 19 67 C21.31 67.33 23.62 67.66 26 68 C26 68.99 26 69.98 26 71 C18.5345605 73.77476512 11.93285519 74.36801906 4 74 C4.2784375 75.11375 4.2784375 75.11375 4.5625 76.25 C5 79 5 79 4 83 C-1.28 83 -6.56 83 -12 83 C-11.34 81.35 -10.68 79.7 -10 78 C-9.34 78 -8.68 78 -8 78 C-8 74.37 -8 70.74 -8 67 C-8.99 67.99 -9.98 68.98 -11 70 C-13.33488464 70.36076355 -13.33488464 70.36076355 -16.11401367 70.34057617 C-17.15486618 70.34034958 -18.19571869 70.34012299 -19.26811218 70.33988953 C-20.95104118 70.31666374 -20.95104118 70.31666374 -22.66796875 70.29296875 C-23.81791824 70.28872391 -24.96786774 70.28447906 -26.15266418 70.28010559 C-29.83117941 70.26329189 -33.50914992 70.22563377 -37.1875 70.1875 C-39.67902856 70.17245669 -42.17056568 70.15876767 -44.66210938 70.14648438 C-50.77492593 70.11337953 -56.88742405 70.06315305 -63 70 C-62.67 68.35 -62.34 66.7 -62 65 C-60.794646 64.9906543 -59.58929199 64.98130859 -58.34741211 64.97167969 C-53.85371636 64.93165484 -49.36069625 64.86586151 -44.86743164 64.79248047 C-42.92676506 64.76434315 -40.98598543 64.74309274 -39.04516602 64.72900391 C-36.24697288 64.70747382 -33.45012871 64.66077282 -30.65234375 64.609375 C-29.36129982 64.60753204 -29.36129982 64.60753204 -28.04417419 64.60565186 C-22.23822761 64.46609046 -18.81857425 63.26355353 -14 60 C-13.97287934 58.56260487 -13.95354933 57.12506137 -13.9375 55.6875 C-13.92589844 54.88699219 -13.91429687 54.08648437 -13.90234375 53.26171875 C-13.90342145 50.83138666 -13.90342145 50.83138666 -15 48 C-15.59748047 48.6496875 -15.59748047 48.6496875 -16.20703125 49.3125 C-16.73683594 49.869375 -17.26664062 50.42625 -17.8125 51 C-18.33457031 51.556875 -18.85664063 52.11375 -19.39453125 52.6875 C-21 54 -21 54 -24 54 C-24 54.66 -24 55.32 -24 56 C-24.66 56 -25.32 56 -26 56 C-25.75220958 50.17692516 -23.9164302 47.09153628 -20.546875 42.40625 C-18.92995157 39.89103578 -17.94545255 37.4965481 -16.9375 34.6875 C-15.38059486 30.44853137 -13.67853924 28.68433945 -10 26 C-9.12056596 23.36539052 -9.12056596 23.36539052 -9 21 C-7.35 21.33 -5.7 21.66 -4 22 C-3.95101562 20.98679687 -3.90203125 19.97359375 -3.8515625 18.9296875 C-3.77647436 17.57810089 -3.70092919 16.22653962 -3.625 14.875 C-3.57859375 13.87726563 -3.57859375 13.87726563 -3.53125 12.859375 C-2.94824219 2.94824219 -2.94824219 2.94824219 0 0 Z " fill="#A0ABD6" transform="translate(526,89)"/>
<path d="M0 0 C12.21 0 24.42 0 37 0 C37 3.96 37 7.92 37 12 C38.34191406 11.98259766 38.34191406 11.98259766 39.7109375 11.96484375 C46.88179515 11.91132989 53.88511384 12.08195017 61 13 C61 13.33 61 13.66 61 14 C57.7 14 54.4 14 51 14 C51 14.99 51 15.98 51 17 C53.64 17 56.28 17 59 17 C59 37.46 59 57.92 59 79 C51.74 79 44.48 79 37 79 C37 59.53 37 40.06 37 20 C36.34 20 35.68 20 35 20 C35 19.34 35 18.68 35 18 C34.40131104 17.7333252 33.80262207 17.46665039 33.18579102 17.19189453 C30.96522403 15.98103694 29.73893387 14.76231049 28.02734375 12.9296875 C23.16243049 8.65583847 17.7613421 9.11028465 11.5625 9.125 C9.8928418 9.0940625 9.8928418 9.0940625 8.18945312 9.0625 C5.45888207 9.01562324 2.73088913 8.99553828 0 9 C0 6.03 0 3.06 0 0 Z " fill="#D2D9EC" transform="translate(290,64)"/>
<path d="M0 0 C1.19456314 -0.00622879 2.38912628 -0.01245758 3.61988831 -0.01887512 C4.9105571 -0.00966537 6.20122589 -0.00045563 7.53100586 0.0090332 C8.86714172 0.00955186 10.20327835 0.00903395 11.53941345 0.00752258 C14.33791513 0.00761226 17.13612845 0.01803321 19.93457031 0.03613281 C23.52498224 0.05884211 27.11497365 0.05935977 30.70543766 0.05261517 C33.46349335 0.04927721 36.22145282 0.05590156 38.97949028 0.0657444 C40.94823792 0.07147422 42.91700196 0.07015942 44.88575745 0.06877136 C46.67287392 0.08306938 46.67287392 0.08306938 48.49609375 0.09765625 C49.54849747 0.10226364 50.60090118 0.10687103 51.68519592 0.11161804 C54.18334961 0.37231445 54.18334961 0.37231445 56.18334961 2.37231445 C56.38158332 4.86088358 56.45615649 7.23815582 56.44213867 9.7277832 C56.44564331 10.48564117 56.44914795 11.24349915 56.45275879 12.02432251 C56.46158091 14.53624559 56.45572535 17.04788837 56.44897461 19.55981445 C56.45032112 21.30094456 56.45226154 23.04207431 56.45477295 24.78320312 C56.45772486 28.43501357 56.45342444 32.08672629 56.4440918 35.73852539 C56.4326972 40.42638427 56.43925632 45.11401415 56.45123672 49.80186462 C56.45845353 53.39800755 56.45616823 56.99409593 56.45098114 60.59024048 C56.44964415 62.31906155 56.4512941 64.04788753 56.45594025 65.77670288 C56.46100258 68.19021786 56.4532996 70.60335869 56.44213867 73.0168457 C56.44618713 73.73587067 56.4502356 74.45489563 56.45440674 75.19570923 C56.41187857 80.14378549 56.41187857 80.14378549 54.18334961 82.37231445 C51.6784668 82.62628174 51.6784668 82.62628174 48.48022461 82.63110352 C47.28558594 82.63740784 46.09094727 82.64371216 44.86010742 82.65020752 C43.56427734 82.64615906 42.26844727 82.6421106 40.93334961 82.63793945 C39.59578379 82.63928624 38.25821844 82.64122688 36.9206543 82.64373779 C34.11624495 82.64668846 31.31196292 82.64239339 28.50756836 82.63305664 C24.90930039 82.62166199 21.31133075 82.62822179 17.71307373 82.64020157 C14.95074203 82.64742181 12.18848128 82.64513152 9.42614746 82.63994598 C7.45296028 82.6379592 5.47977035 82.64404287 3.5065918 82.65020752 C2.31195313 82.6439032 1.11731445 82.63759888 -0.11352539 82.63110352 C-1.16894531 82.62951233 -2.22436523 82.62792114 -3.31176758 82.62628174 C-5.81665039 82.37231445 -5.81665039 82.37231445 -7.81665039 80.37231445 C-7.94165039 77.74731445 -7.94165039 77.74731445 -7.81665039 75.37231445 C-7.03950684 75.3472583 -6.26236328 75.32220215 -5.46166992 75.29638672 C-1.9548197 75.18064649 1.55174706 75.05782093 5.05834961 74.93481445 C6.28166992 74.89549805 7.50499023 74.85618164 8.76538086 74.81567383 C9.93198242 74.7737793 11.09858398 74.73188477 12.30053711 74.6887207 C13.37932129 74.65206299 14.45810547 74.61540527 15.56958008 74.57763672 C18.16404496 74.53854803 18.16404496 74.53854803 20.18334961 73.37231445 C29.75334961 73.37231445 39.32334961 73.37231445 49.18334961 73.37231445 C49.18334961 50.60231445 49.18334961 27.83231445 49.18334961 4.37231445 C43.90334961 4.37231445 38.62334961 4.37231445 33.18334961 4.37231445 C32.85334961 5.69231445 32.52334961 7.01231445 32.18334961 8.37231445 C24.59334961 8.37231445 17.00334961 8.37231445 9.18334961 8.37231445 C8.85334961 7.05231445 8.52334961 5.73231445 8.18334961 4.37231445 C5.21334961 4.37231445 2.24334961 4.37231445 -0.81665039 4.37231445 C-0.81665039 5.03231445 -0.81665039 5.69231445 -0.81665039 6.37231445 C-1.80665039 6.37231445 -2.79665039 6.37231445 -3.81665039 6.37231445 C-3.81665039 24.52231445 -3.81665039 42.67231445 -3.81665039 61.37231445 C1.13334961 61.37231445 6.08334961 61.37231445 11.18334961 61.37231445 C14.40600586 67.42700195 14.40600586 67.42700195 15.18334961 69.37231445 C14.85334961 70.03231445 14.52334961 70.69231445 14.18334961 71.37231445 C11.55948474 68.31113877 11.18334961 67.64058318 11.18334961 63.37231445 C10.07475586 63.38391602 8.96616211 63.39551758 7.82397461 63.4074707 C6.36043463 63.41685237 4.89689283 63.42595217 3.43334961 63.43481445 C2.70374023 63.44319336 1.97413086 63.45157227 1.22241211 63.46020508 C-2.30335597 63.4762313 -5.42699955 63.32524159 -8.81665039 62.37231445 C-8.88614099 54.73155227 -8.93945679 47.09082284 -8.97208691 39.4498167 C-8.98774732 35.90181509 -9.0089919 32.35402958 -9.04296875 28.80615234 C-9.08178046 24.72792478 -9.09635641 20.64992444 -9.10961914 16.5715332 C-9.125103 15.29646408 -9.14058685 14.02139496 -9.15653992 12.70768738 C-9.15676651 11.52668961 -9.1569931 10.34569183 -9.15722656 9.12890625 C-9.1638884 8.08743942 -9.17055023 7.0459726 -9.17741394 5.97294617 C-8.81665039 3.37231445 -8.81665039 3.37231445 -7.65890503 1.53579712 C-5.04443164 -0.11538313 -3.08198999 -0.00184189 0 0 Z " fill="#6C7CD9" transform="translate(101.816650390625,82.627685546875)"/>
<path d="M0 0 C0.33 0 0.66 0 1 0 C1 12.54 1 25.08 1 38 C3.97 37.01 6.94 36.02 10 35 C11.98 34.505 11.98 34.505 14 34 C14 34.99 14 35.98 14 37 C10.27737682 40.19609831 5.92249987 42.53851564 1 43 C1.495 44.19625 1.99 45.3925 2.5 46.625 C3.83670249 50.21500097 4.55223415 53.13436094 4 57 C0.68629 59.20914 -0.3446021 59.22481553 -4.1875 59.125 C-5.08855469 59.10695312 -5.98960937 59.08890625 -6.91796875 59.0703125 C-7.60503906 59.04710937 -8.29210937 59.02390625 -9 59 C-9 57.68 -9 56.36 -9 55 C-9.66 55 -10.32 55 -11 55 C-10.97679687 55.60585937 -10.95359375 56.21171875 -10.9296875 56.8359375 C-10.79371922 63.14875029 -11.53788034 68.86431929 -13 75 C-13.65742188 74.29810547 -13.65742188 74.29810547 -14.328125 73.58203125 C-16.02267336 71.81617538 -16.02267336 71.81617538 -18.75 70.6875 C-22.64335017 68.6659528 -25.985138 66.20217591 -29 63 C-29 62.34 -29 61.68 -29 61 C-29.66 61 -30.32 61 -31 61 C-34.46890152 53.33950915 -35.45042587 46.35127761 -32.75 38.25 C-29.30707657 33.19395861 -23.28535734 30.7145883 -18 28 C-17.38608398 27.68466309 -16.77216797 27.36932617 -16.13964844 27.04443359 C-12.11409098 24.9860747 -8.06268018 22.98422138 -4 21 C-2.68 20.34 -1.36 19.68 0 19 C0 12.73 0 6.46 0 0 Z " fill="#E0E5F6" transform="translate(250,81)"/>
<path d="M0 0 C0.33 0 0.66 0 1 0 C1 19.47 1 38.94 1 59 C7.6 59.33 14.2 59.66 21 60 C21.99 62.31 22.98 64.62 24 67 C26.0335948 68.26804566 26.0335948 68.26804566 28 69 C28.33 69.99 28.66 70.98 29 72 C20.09 72 11.18 72 2 72 C2.66 73.98 3.32 75.96 4 78 C11.77116308 78.06948809 19.54225348 78.12280502 27.31364918 78.15543652 C30.92218303 78.1710975 34.53050444 78.19234315 38.13891602 78.22631836 C41.62078122 78.25889717 45.10244201 78.27684975 48.58444786 78.28463173 C50.56042097 78.29287856 52.53631175 78.31630038 54.51216125 78.33988953 C55.71317978 78.34011612 56.9141983 78.34034271 58.15161133 78.34057617 C59.74045891 78.35056892 59.74045891 78.35056892 61.36140442 78.36076355 C64.32832545 77.95510951 65.20751967 77.33637946 67 75 C67 75.66 67 76.32 67 77 C70.3 77.33 73.6 77.66 77 78 C77 78.66 77 79.32 77 80 C75.56432267 80.32076956 74.12628018 80.63094808 72.6875 80.9375 C71.48673828 81.19853516 71.48673828 81.19853516 70.26171875 81.46484375 C59.29057664 83.2648994 48.28261946 83.18622668 37.1953125 83.18530273 C34.27068415 83.18748457 31.34643672 83.20567938 28.421875 83.22460938 C1.60898848 83.30449424 1.60898848 83.30449424 -5 80 C-5 79.34 -5 78.68 -5 78 C-2.03 77.505 -2.03 77.505 1 77 C0.67 76.01 0.34 75.02 0 74 C-0.721875 74.495 -1.44375 74.99 -2.1875 75.5 C-6.60005282 77.77538868 -11.33851577 77.1733385 -16.171875 77.0078125 C-18.95108298 76.78817371 -18.95108298 76.78817371 -21 78 C-20.90388428 77.31075439 -20.80776855 76.62150879 -20.70874023 75.91137695 C-18.03434487 57.99014303 -18.03434487 57.99014303 -19 40 C-17.72549553 40.59638333 -16.45553123 41.20247416 -15.1875 41.8125 C-14.47980469 42.14894531 -13.77210937 42.48539063 -13.04296875 42.83203125 C-10.97448349 44.01458783 -9.67300757 45.32699243 -8 47 C-6.19809386 47.97715609 -6.19809386 47.97715609 -4.3125 48.6875 C-3.219375 49.120625 -2.12625 49.55375 -1 50 C-1.33 49.01 -1.66 48.02 -2 47 C-1.34 47 -0.68 47 0 47 C0 31.49 0 15.98 0 0 Z " fill="#E3E8F7" transform="translate(92,86)"/>
<path d="M0 0 C4.62 0 9.24 0 14 0 C14 5.94 14 11.88 14 18 C15.98 18 17.96 18 20 18 C20 12.06 20 6.12 20 0 C28.25 0 36.5 0 45 0 C45 1.98 45 3.96 45 6 C43.2421875 6.5859375 41.484375 7.171875 39.7265625 7.7578125 C37.25644918 9.27930002 37.25644918 9.27930002 36 15 C47.55 15 59.1 15 71 15 C70.505 12.525 70.505 12.525 70 10 C104.92392464 10.96196232 104.92392464 10.96196232 111 14 C111 14.66 111 15.32 111 16 C94.83043067 23.32677614 72.2798446 20.43374844 54.77825928 20.60089111 C50.73490684 20.641453 46.69168375 20.69230219 42.6484375 20.7421875 C34.76571462 20.83797708 26.88292562 20.9226796 19 21 C18.67 22.65 18.34 24.3 18 26 C17.01 26.33 16.02 26.66 15 27 C15 24.69 15 22.38 15 20 C9.06 19.67 3.12 19.34 -3 19 C-2.44912716 12.48133812 -1.53808217 6.35740629 0 0 Z " fill="#D6DDED" transform="translate(252,148)"/>
<path d="M0 0 C1.79133978 -0.05391993 3.58313899 -0.09275571 5.375 -0.125 C6.87160156 -0.15980469 6.87160156 -0.15980469 8.3984375 -0.1953125 C11 0 11 0 13 2 C13.25396729 4.73266602 13.25396729 4.73266602 13.25878906 8.25390625 C13.26509338 9.56866943 13.27139771 10.88343262 13.27789307 12.23803711 C13.2743134 13.6795261 13.27021146 15.12101387 13.265625 16.5625 C13.26697168 18.03458724 13.26891223 19.50667405 13.27142334 20.97875977 C13.27437449 24.06563548 13.27007732 27.15239553 13.26074219 30.23925781 C13.24934756 34.20072129 13.25590709 38.16191378 13.26788712 42.12336731 C13.275106 45.16363577 13.27281768 48.20383973 13.26763153 51.24411011 C13.26629511 52.7049869 13.2679425 54.1658695 13.27259064 55.6267395 C13.27765606 57.66652315 13.26856979 59.70632726 13.25878906 61.74609375 C13.25719788 62.90810303 13.25560669 64.0701123 13.25396729 65.26733398 C13 68 13 68 11 70 C8.05903263 70.17539436 5.21346651 70.23132375 2.2734375 70.1953125 C1.41062164 70.1924826 0.54780579 70.18965271 -0.34115601 70.18673706 C-3.1025772 70.17552333 -5.8636765 70.15041684 -8.625 70.125 C-10.49478699 70.11497173 -12.36457905 70.10584562 -14.234375 70.09765625 C-18.82304109 70.07558012 -23.41146593 70.04104234 -28 70 C-28 71.98 -28 73.96 -28 76 C-27.278125 76.061875 -26.55625 76.12375 -25.8125 76.1875 C-22.09333083 77.26192665 -20.45222505 79.05732994 -18 82 C-18 82.99 -18 83.98 -18 85 C-29.55 85 -41.1 85 -53 85 C-52 79 -52 79 -50.25 77.125 C-47.63695229 75.81847614 -45.88466476 75.75961127 -43 76 C-43 73.69 -43 71.38 -43 69 C-51.58 69 -60.16 69 -69 69 C-69 67.68 -69 66.36 -69 65 C-43.59 65 -18.18 65 8 65 C8 44.54 8 24.08 8 3 C5.36 3 2.72 3 0 3 C0 2.01 0 1.02 0 0 Z " fill="#7C88BA" transform="translate(341,78)"/>
<path d="M0 0 C2.5 1.375 2.5 1.375 4 3 C4 3.66 4 4.32 4 5 C4.66 5 5.32 5 6 5 C6.495 7.475 6.495 7.475 7 10 C8.98 10 10.96 10 13 10 C12.41152509 21.12014652 10.74178643 32.01250447 9 43 C8.09233887 43.01458252 7.18467773 43.02916504 6.24951172 43.04418945 C2.8609069 43.10548149 -0.52691689 43.17967576 -3.91503906 43.26245117 C-5.37749708 43.29557135 -6.84007895 43.32364305 -8.30273438 43.34643555 C-10.41329403 43.38022175 -12.52273186 43.4325438 -14.6328125 43.48828125 C-16.53377686 43.52755737 -16.53377686 43.52755737 -18.47314453 43.56762695 C-22.25283316 44.03099595 -24.67511055 45.21015575 -28 47 C-28.99 47 -29.98 47 -31 47 C-26.71384949 43.50340353 -24.36796339 41.93045825 -18.875 41.4375 C-17.96492188 41.35371094 -17.05484375 41.26992187 -16.1171875 41.18359375 C-15.41851562 41.12300781 -14.71984375 41.06242187 -14 41 C-13.94172442 37.4375692 -13.90631115 33.87526181 -13.875 30.3125 C-13.85824219 29.30509766 -13.84148437 28.29769531 -13.82421875 27.25976562 C-13.81777344 26.28330078 -13.81132812 25.30683594 -13.8046875 24.30078125 C-13.79421387 23.40528564 -13.78374023 22.50979004 -13.77294922 21.5871582 C-14.02406285 18.72581284 -14.879864 16.63008365 -16 14 C-16.42214505 10.68314607 -16.70707987 8.21563346 -14.984375 5.25390625 C-10.80138065 -0.00003544 -6.48373837 -0.75665357 0 0 Z " fill="#9FA8CF" transform="translate(462,91)"/>
<path d="M0 0 C0.95310059 0.01047363 1.90620117 0.02094727 2.88818359 0.03173828 C3.81711426 0.0367334 4.74604492 0.04172852 5.703125 0.046875 C6.88567871 0.06508301 8.06823242 0.08329102 9.28662109 0.10205078 C13.04037109 0.14330078 16.79412109 0.18455078 20.66162109 0.22705078 C20.66162109 13.09705078 20.66162109 25.96705078 20.66162109 39.22705078 C15.71162109 38.89705078 10.76162109 38.56705078 5.66162109 38.22705078 C1.56240241 39.46405384 1.56240241 39.46405384 -1.33837891 41.22705078 C-2.32837891 41.22705078 -3.31837891 41.22705078 -4.33837891 41.22705078 C-4.38773101 35.70948602 -4.42407552 30.19204907 -4.44824219 24.67431641 C-4.45831425 22.79636396 -4.47197252 20.91842725 -4.48925781 19.04052734 C-4.51345344 16.34484988 -4.52484973 13.64937932 -4.53369141 10.95361328 C-4.54401398 10.11085846 -4.55433655 9.26810364 -4.56497192 8.39981079 C-4.56537035 6.34083831 -4.46095478 4.28237144 -4.33837891 2.22705078 C-2.33837891 0.22705078 -2.33837891 0.22705078 0 0 Z " fill="#98A9EE" transform="translate(255.33837890625,77.77294921875)"/>
<path d="M0 0 C4.38737662 -0.73122944 7.31844806 0.6708549 11 3 C12.58963577 4.67221425 14.03269279 6.41573626 15.4765625 8.21484375 C17.72306278 10.84728126 20.28324476 12.8654066 23 15 C22.67 15.99 22.34 16.98 22 18 C18.49938918 17.35173874 16.01189321 15.85347275 13 14 C12.01 13.67 11.02 13.34 10 13 C10.14091064 13.93005859 10.14091064 13.93005859 10.28466797 14.87890625 C11.31139305 23.16507522 10.37718511 30.78201693 9.125 39 C8.93510732 40.32145832 8.74629892 41.64307293 8.55859375 42.96484375 C7.17457933 52.47626202 7.17457933 52.47626202 6 56 C7.65 56 9.3 56 11 56 C10.67 56.66 10.34 57.32 10 58 C7.06225537 58.05390357 4.12549768 58.0936255 1.1875 58.125 C0.35412109 58.14175781 -0.47925781 58.15851563 -1.33789062 58.17578125 C-2.54155273 58.18544922 -2.54155273 58.18544922 -3.76953125 58.1953125 C-4.87711792 58.21102295 -4.87711792 58.21102295 -6.00708008 58.22705078 C-8 58 -8 58 -11 56 C-10.35666962 49.82402835 -8.54814283 44.65669935 -6.13671875 38.9609375 C-3.71289116 33.0104982 -3.02531145 28.50028802 -5.4375 22.3125 C-5.953125 21.219375 -6.46875 20.12625 -7 19 C-7.9375 16.9375 -7.9375 16.9375 -8 15 C-6.71810412 12.96664791 -5.37843192 10.96918846 -4 9 C-3.29835358 7.01200182 -2.62627128 5.01301483 -2 3 C-1.34 2.01 -0.68 1.02 0 0 Z " fill="#D5D7EF" transform="translate(64,115)"/>
<path d="M0 0 C4.95 0 9.9 0 15 0 C16.55467951 7.48189514 17.26581195 14.3652902 17 22 C19.12563103 21.88623383 21.2505261 21.75864369 23.375 21.625 C25.15003906 21.52058594 25.15003906 21.52058594 26.9609375 21.4140625 C30.10562319 21.29782654 30.10562319 21.29782654 32 19 C34.72869407 19.03287583 37.2966618 19.56397771 40 20 C40 20.99 40 21.98 40 23 C32.5345605 25.77476512 25.93285519 26.36801906 18 26 C18.185625 26.7425 18.37125 27.485 18.5625 28.25 C19 31 19 31 18 35 C12.72 35 7.44 35 2 35 C2.66 33.35 3.32 31.7 4 30 C4.66 30 5.32 30 6 30 C6 26.37 6 22.74 6 19 C5.01 19.99 4.02 20.98 3 22 C0.66511536 22.36076355 0.66511536 22.36076355 -2.11401367 22.34057617 C-3.15486618 22.34034958 -4.19571869 22.34012299 -5.26811218 22.33988953 C-6.95104118 22.31666374 -6.95104118 22.31666374 -8.66796875 22.29296875 C-9.81791824 22.28872391 -10.96786774 22.28447906 -12.15266418 22.28010559 C-15.83117941 22.26329189 -19.50914992 22.22563377 -23.1875 22.1875 C-25.67902856 22.17245669 -28.17056568 22.15876767 -30.66210938 22.14648438 C-36.77492593 22.11337953 -42.88742405 22.06315305 -49 22 C-48.67 20.35 -48.34 18.7 -48 17 C-46.19196899 16.98598145 -46.19196899 16.98598145 -44.34741211 16.97167969 C-39.85371636 16.93165484 -35.36069625 16.86586151 -30.86743164 16.79248047 C-28.92676506 16.76434315 -26.98598543 16.74309274 -25.04516602 16.72900391 C-22.24697288 16.70747382 -19.45012871 16.66077282 -16.65234375 16.609375 C-15.36129982 16.60753204 -15.36129982 16.60753204 -14.04417419 16.60565186 C-8.23822761 16.46609046 -4.81857425 15.26355353 0 12 C0 8.04 0 4.08 0 0 Z " fill="#CED3EE" transform="translate(512,137)"/>
<path d="M0 0 C0.33 0.99 0.66 1.98 1 3 C3.64 3 6.28 3 9 3 C9 23.46 9 43.92 9 65 C1.74 65 -5.52 65 -13 65 C-13 62.03 -13 59.06 -13 56 C-8.71 56 -4.42 56 0 56 C0 37.52 0 19.04 0 0 Z " fill="#99AAEC" transform="translate(340,78)"/>
<path d="M0 0 C0.66 0 1.32 0 2 0 C2 3.63 2 7.26 2 11 C1.01 11 0.02 11 -1 11 C-1 10.34 -1 9.68 -1 9 C-15.85 9.33 -30.7 9.66 -46 10 C-45.505 11.485 -45.505 11.485 -45 13 C-46.37291868 13.48509793 -47.74846703 13.96275513 -49.125 14.4375 C-50.27355469 14.83775391 -50.27355469 14.83775391 -51.4453125 15.24609375 C-58.44903619 17.31294187 -65.42432746 17.18618166 -72.66577148 17.18530273 C-74.66459254 17.1874751 -76.66337425 17.20594797 -78.66210938 17.22460938 C-97.62049346 17.25300436 -97.62049346 17.25300436 -104 13 C-102.96461386 10.17621961 -102.33380245 9.1756855 -99.625 7.75 C-97 7 -97 7 -93 7 C-94.75 10.875 -94.75 10.875 -97 12 C-91.66158219 12.14841624 -86.32436658 12.2572453 -80.984375 12.32958984 C-79.16840701 12.35974788 -77.35258451 12.40068198 -75.53710938 12.45263672 C-72.92541645 12.52550124 -70.31564942 12.55946367 -67.703125 12.5859375 C-66.89256653 12.61690521 -66.08200806 12.64787292 -65.24688721 12.67977905 C-63.01004507 12.68111202 -61.15088254 12.61725407 -59 12 C-55.96724136 8.53017779 -54.537836 5.57160601 -54 1 C-53.505 1.99 -53.505 1.99 -53 3 C-35.84 3 -18.68 3 -1 3 C-0.67 2.01 -0.34 1.02 0 0 Z " fill="#D6DCED" transform="translate(516,156)"/>
<path d="M0 0 C0.99 0 1.98 0 3 0 C4.08570325 6.5142195 4.62343061 12.50627754 3 19 C6.96 19 10.92 19 15 19 C15 20.65 15 22.3 15 24 C10.38 24 5.76 24 1 24 C0.896875 25.175625 0.79375 26.35125 0.6875 27.5625 C0.1383919 32.77070717 -0.96264309 37.85320196 -2.15942383 42.94555664 C-2.52476099 44.61397987 -2.7719408 46.30734046 -3 48 C-2.34 48.66 -1.68 49.32 -1 50 C-2.65 50 -4.3 50 -6 50 C-6.81434143 47.14839609 -7.11881242 44.63373869 -7.09765625 41.671875 C-7.09443359 40.87265625 -7.09121094 40.0734375 -7.08789062 39.25 C-7.07951172 38.425 -7.07113281 37.6 -7.0625 36.75 C-7.05798828 35.90953125 -7.05347656 35.0690625 -7.04882812 34.203125 C-7.03707961 32.13538599 -7.01914522 30.06768376 -7 28 C-7.27714844 28.97582031 -7.55429688 29.95164063 -7.83984375 30.95703125 C-8.205694 32.24219751 -8.57158136 33.52735321 -8.9375 34.8125 C-9.29714844 36.07707031 -9.65679687 37.34164062 -10.02734375 38.64453125 C-10.64491261 40.77501982 -11.29854631 42.89563892 -12 45 C-12.99 45.495 -12.99 45.495 -14 46 C-14.65213292 48.02463255 -14.65213292 48.02463255 -15 50 C-16.65 50 -18.3 50 -20 50 C-19.55140625 49.21496094 -19.55140625 49.21496094 -19.09375 48.4140625 C-17.74756718 45.4428447 -17.15194187 42.57093245 -16.5 39.375 C-16.24476563 38.12976563 -15.98953125 36.88453125 -15.7265625 35.6015625 C-15.48679688 34.41304687 -15.24703125 33.22453125 -15 32 C-14.80148438 31.07960937 -14.60296875 30.15921875 -14.3984375 29.2109375 C-13.18314846 23.49726513 -12.47065427 17.82125017 -12 12 C-11.34 12 -10.68 12 -10 12 C-10 13.32 -10 14.64 -10 16 C-8.3745692 15.85904936 -6.74965949 15.71207913 -5.125 15.5625 C-4.22007812 15.48128906 -3.31515625 15.40007812 -2.3828125 15.31640625 C0.01110861 15.13010715 0.01110861 15.13010715 2 14 C1.2812193 6.95792295 1.2812193 6.95792295 0 0 Z " fill="#7C87D7" transform="translate(251,124)"/>
<path d="M0 0 C-1.73954121 4.88902634 -4.44327384 9.04130998 -7.25390625 13.359375 C-9.51132096 16.88787503 -9.51132096 16.88787503 -10 21 C-8.989375 20.401875 -7.97875 19.80375 -6.9375 19.1875 C-5.62659492 18.45546984 -4.31409885 17.72628127 -3 17 C-2.01 16.443125 -1.02 15.88625 0 15.3125 C5.79101611 12.85165251 12.78356055 13.2320164 19 13 C19 13.66 19 14.32 19 15 C16.734375 16.65625 16.734375 16.65625 13.75 18.5 C12.77546875 19.1084375 11.8009375 19.716875 10.796875 20.34375 C8.56209634 21.66713848 6.34283528 22.88436415 4 24 C4 24.66 4 25.32 4 26 C2.18407958 27.62234515 0.26839413 29.08169032 -1.6640625 30.5625 C-10.27764196 39.55058291 -10.90049589 48.26431138 -10.875 60.125 C-10.89316066 61.66930458 -10.91397382 63.21358034 -10.9375 64.7578125 C-10.98889972 68.50537066 -11.00446261 72.25204296 -11 76 C-11.33 76 -11.66 76 -12 76 C-12 51.25 -12 26.5 -12 1 C-11.34 2.32 -10.68 3.64 -10 5 C-9.52949219 4.6390625 -9.05898437 4.278125 -8.57421875 3.90625 C-7.95160156 3.4421875 -7.32898438 2.978125 -6.6875 2.5 C-6.07261719 2.0359375 -5.45773438 1.571875 -4.82421875 1.09375 C-3 0 -3 0 0 0 Z " fill="#BAC1E3" transform="translate(170,85)"/>
<path d="M0 0 C5.38568808 4.33847095 6.35030267 9.21521429 7.4375 15.7578125 C7.84227447 18.18480295 7.84227447 18.18480295 10 20 C0.1 20 -9.8 20 -20 20 C-17.25 6.25 -17.25 6.25 -10.71875 1.09375 C-6.91658872 -1.32580718 -4.23511166 -1.12360105 0 0 Z " fill="#D2D9EA" transform="translate(484,134)"/>
<path d="M0 0 C0.89267578 0.00966797 1.78535156 0.01933594 2.70507812 0.02929688 C4.09823242 0.06700195 4.09823242 0.06700195 5.51953125 0.10546875 C6.45990234 0.11900391 7.40027344 0.13253906 8.36914062 0.14648438 C10.69068163 0.18183779 13.01106778 0.23118201 15.33203125 0.29296875 C15.00203125 1.28296875 14.67203125 2.27296875 14.33203125 3.29296875 C11.30029844 4.48790849 8.30743698 4.3979083 5.08203125 4.35546875 C4.19 4.34644531 3.29796875 4.33742188 2.37890625 4.328125 C1.7034375 4.31652344 1.02796875 4.30492188 0.33203125 4.29296875 C0.33203125 4.95296875 0.33203125 5.61296875 0.33203125 6.29296875 C-0.65796875 6.29296875 -1.64796875 6.29296875 -2.66796875 6.29296875 C-2.66796875 24.44296875 -2.66796875 42.59296875 -2.66796875 61.29296875 C2.28203125 61.29296875 7.23203125 61.29296875 12.33203125 61.29296875 C15.5546875 67.34765625 15.5546875 67.34765625 16.33203125 69.29296875 C16.00203125 69.95296875 15.67203125 70.61296875 15.33203125 71.29296875 C12.70816638 68.23179307 12.33203125 67.56123748 12.33203125 63.29296875 C11.2234375 63.30457031 10.11484375 63.31617188 8.97265625 63.328125 C7.50911627 63.33750667 6.04557447 63.34660646 4.58203125 63.35546875 C3.85242188 63.36384766 3.1228125 63.37222656 2.37109375 63.38085938 C-1.15467433 63.39688559 -4.27831791 63.24589588 -7.66796875 62.29296875 C-7.73745935 54.65220657 -7.79077515 47.01147713 -7.82340527 39.370471 C-7.83906568 35.82246939 -7.86031026 32.27468388 -7.89428711 28.72680664 C-7.93309882 24.64857908 -7.94767477 20.57057874 -7.9609375 16.4921875 C-7.97642136 15.21711838 -7.99190521 13.94204926 -8.00785828 12.62834167 C-8.00808487 11.4473439 -8.00831146 10.26634613 -8.00854492 9.04956055 C-8.01520676 8.00809372 -8.02186859 6.96662689 -8.0287323 5.89360046 C-7.66796875 3.29296875 -7.66796875 3.29296875 -6.28271484 1.45446777 C-4.09889644 -0.11636925 -2.67216189 -0.05106042 0 0 Z " fill="#8E98D5" transform="translate(100.66796875,82.70703125)"/>
<path d="M0 0 C3.31248187 -0.02888146 6.62493167 -0.04675799 9.9375 -0.0625 C10.88302734 -0.07087891 11.82855469 -0.07925781 12.80273438 -0.08789062 C14.15141602 -0.09272461 14.15141602 -0.09272461 15.52734375 -0.09765625 C16.77632446 -0.10551147 16.77632446 -0.10551147 18.05053711 -0.11352539 C20 0 20 0 21 1 C21.10918707 2.67161553 21.14906805 4.34781498 21.16113281 6.02294922 C21.17074036 7.09431122 21.1803479 8.16567322 21.19024658 9.26950073 C21.19449646 10.43611237 21.19874634 11.602724 21.203125 12.8046875 C21.20882507 13.99474396 21.21452515 15.18480042 21.22039795 16.41091919 C21.22986527 18.93458156 21.23638877 21.45825639 21.24023438 23.98193359 C21.24994094 27.85145546 21.2809493 31.72044668 21.3125 35.58984375 C21.31902948 38.03645516 21.32428017 40.48307039 21.328125 42.9296875 C21.3404718 44.09225067 21.3528186 45.25481384 21.36553955 46.4526062 C21.36253845 47.53027252 21.35953735 48.60793884 21.35644531 49.71826172 C21.36009094 50.66788788 21.36373657 51.61751404 21.36749268 52.59591675 C21 55 21 55 19.66009521 56.8117981 C17.10640133 58.6395872 14.89566555 58.28695695 11.8125 58.1875 C10.72582031 58.16042969 9.63914062 58.13335937 8.51953125 58.10546875 C7.27236328 58.05326172 7.27236328 58.05326172 6 58 C6 56.35 6 54.7 6 53 C8.97 53 11.94 53 15 53 C15 36.17 15 19.34 15 2 C10.05 2 5.1 2 0 2 C0 1.34 0 0.68 0 0 Z " fill="#444E75" transform="translate(524,101)"/>
<path d="M0 0 C4.38737662 -0.73122944 7.31844806 0.6708549 11 3 C12.58963577 4.67221425 14.03269279 6.41573626 15.4765625 8.21484375 C17.72306278 10.84728126 20.28324476 12.8654066 23 15 C22.67 15.99 22.34 16.98 22 18 C18.49938918 17.35173874 16.01189321 15.85347275 13 14 C12.01 13.67 11.02 13.34 10 13 C10.01160156 13.71027344 10.02320312 14.42054688 10.03515625 15.15234375 C10.04417969 16.07144531 10.05320312 16.99054688 10.0625 17.9375 C10.07410156 18.85402344 10.08570312 19.77054688 10.09765625 20.71484375 C10 23 10 23 9 24 C6.81707226 24.23481693 4.62796826 24.41363323 2.4375 24.5625 C0.64119141 24.68818359 0.64119141 24.68818359 -1.19140625 24.81640625 C-2.11824219 24.87699219 -3.04507813 24.93757813 -4 25 C-8.21715818 17.9772118 -8.21715818 17.9772118 -7.375 14.1875 C-6.27717223 12.44095583 -5.14430259 10.71645389 -4 9 C-3.67 8.01 -3.34 7.02 -3 6 C-2 3 -2 3 0 0 Z " fill="#737ED8" transform="translate(64,115)"/>
<path d="M0 0 C5.28 0 10.56 0 16 0 C16 22.77 16 45.54 16 69 C11.38 69 6.76 69 2 69 C2.763125 68.319375 3.52625 67.63875 4.3125 66.9375 C10.62632189 60.03634584 10.46258796 53.25742888 10.51171875 44.28515625 C10.52966995 43.07427841 10.54762115 41.86340057 10.56611633 40.61582947 C10.62011128 36.7647546 10.65408149 32.91380295 10.6875 29.0625 C10.72068249 26.44464436 10.75517301 23.82680495 10.79101562 21.20898438 C10.87583181 14.80610008 10.94422759 8.40319962 11 2 C10.07767578 2.10828125 10.07767578 2.10828125 9.13671875 2.21875 C8.32847656 2.3115625 7.52023438 2.404375 6.6875 2.5 C5.88699219 2.5928125 5.08648437 2.685625 4.26171875 2.78125 C2 3 2 3 -1 3 C-0.67 2.01 -0.34 1.02 0 0 Z " fill="#D0D5DD" transform="translate(135,87)"/>
<path d="M0 0 C11.38380184 -0.11858127 22.64753762 0.13387208 34 1 C34.68359375 2.69270833 35.3671875 4.38541667 36.05078125 6.078125 C37.13413883 8.27158973 38.4865507 10.08381209 40 12 C35.66745597 12.2276025 31.33406198 12.42860584 27 12.625 C25.77925781 12.68945312 24.55851562 12.75390625 23.30078125 12.8203125 C8.55066863 13.45815521 8.55066863 13.45815521 2.5625 9.3125 C0.51860648 6.28753759 0.42976882 3.58418855 0 0 Z " fill="#FCFDFE" transform="translate(79,145)"/>
<path d="M0 0 C2.5 1.375 2.5 1.375 4 3 C4 3.66 4 4.32 4 5 C4.66 5.33 5.32 5.66 6 6 C6.42004622 12.09067026 6.0566405 15.10816881 2 20 C-2.17511535 22.08755768 -7.51072113 21.34855463 -11.9375 20.3125 C-14.74862839 18.52360012 -15.21233912 17.22224907 -16 14 C-16.42214505 10.68314607 -16.70707987 8.21563346 -14.984375 5.25390625 C-10.80138065 -0.00003544 -6.48373837 -0.75665357 0 0 Z " fill="#F1A774" transform="translate(462,91)"/>
<path d="M0 0 C4.62 0 9.24 0 14 0 C14 2.64 14 5.28 14 8 C14.886875 7.896875 15.77375 7.79375 16.6875 7.6875 C20 8 20 8 22.875 10.3125 C25 13 25 13 25 16 C13.45 16 1.9 16 -10 16 C-9 10 -9 10 -7.25 8.125 C-4.63695229 6.81847614 -2.88466476 6.75961127 0 7 C0 4.69 0 2.38 0 0 Z " fill="#5A648B" transform="translate(298,147)"/>
<path d="M0 0 C1.79133978 -0.05391993 3.58313899 -0.09275571 5.375 -0.125 C6.37273437 -0.14820312 7.37046875 -0.17140625 8.3984375 -0.1953125 C11 0 11 0 13 2 C13.24050903 4.74612427 13.24050903 4.74612427 13.22705078 8.28564453 C13.22734283 8.92967224 13.22763489 9.57369995 13.22793579 10.23724365 C13.22654074 12.36923627 13.21097174 14.50088082 13.1953125 16.6328125 C13.19158298 18.10968841 13.18873572 19.58656678 13.18673706 21.06344604 C13.17909574 24.95317398 13.15944308 28.84275288 13.1373291 32.73242188 C13.11688135 36.70050032 13.10773764 40.66860282 13.09765625 44.63671875 C13.07619756 52.42454716 13.04205572 60.21225271 13 68 C11.515 68.495 11.515 68.495 10 69 C7.89550279 65.55037837 7.75667197 62.85869569 7.77294922 58.85449219 C7.77310028 57.61350769 7.77325134 56.37252319 7.77340698 55.09393311 C7.78361939 53.7449121 7.79405136 52.39589273 7.8046875 51.046875 C7.80841951 49.6625387 7.81126559 48.27819975 7.81326294 46.89385986 C7.82088466 43.2573309 7.84052045 39.62096269 7.8626709 35.98449707 C7.88316091 32.27093683 7.89227139 28.55735052 7.90234375 24.84375 C7.92376785 17.56242686 7.95788599 10.28123599 8 3 C5.36 3 2.72 3 0 3 C0 2.01 0 1.02 0 0 Z " fill="#526099" transform="translate(341,78)"/>
<path d="M0 0 C0.99 0.33 1.98 0.66 3 1 C3.495 2.485 3.495 2.485 4 4 C-4.91 4 -13.82 4 -23 4 C-22.34 5.98 -21.68 7.96 -21 10 C-13.22883692 10.06948809 -5.45774652 10.12280502 2.31364918 10.15543652 C5.92218303 10.1710975 9.53050444 10.19234315 13.13891602 10.22631836 C16.62078122 10.25889717 20.10244201 10.27684975 23.58444786 10.28463173 C25.56042097 10.29287856 27.53631175 10.31630038 29.51216125 10.33988953 C30.71317978 10.34011612 31.9141983 10.34034271 33.15161133 10.34057617 C34.74045891 10.35056892 34.74045891 10.35056892 36.36140442 10.36076355 C39.32832545 9.95510951 40.20751967 9.33637946 42 7 C42 7.66 42 8.32 42 9 C46.95 9.495 46.95 9.495 52 10 C52 10.66 52 11.32 52 12 C50.56432267 12.32076956 49.12628018 12.63094808 47.6875 12.9375 C46.88699219 13.11152344 46.08648437 13.28554687 45.26171875 13.46484375 C34.29057664 15.2648994 23.28261946 15.18622668 12.1953125 15.18530273 C9.27068415 15.18748457 6.34643672 15.20567938 3.421875 15.22460938 C-23.39101152 15.30449424 -23.39101152 15.30449424 -30 12 C-30 11.34 -30 10.68 -30 10 C-28.02 9.67 -26.04 9.34 -24 9 C-24 7.02 -24 5.04 -24 3 C-11.625 2.505 -11.625 2.505 1 2 C0.67 1.34 0.34 0.68 0 0 Z " fill="#D9DEF2" transform="translate(117,154)"/>
<path d="M0 0 C0.99 0.66 1.98 1.32 3 2 C3.1875 5.125 3.1875 5.125 3 8 C2.34 6.68 1.68 5.36 1 4 C1 4.845625 1 5.69125 1 6.5625 C-0.25295169 10.86952143 -1.99708303 11.93016385 -5.40234375 14.66796875 C-10.65881264 19.38693406 -15.05204082 24.996122 -19.59301758 30.39355469 C-20.05732178 30.92368164 -20.52162598 31.45380859 -21 32 C-21.49201904 32.56364258 -21.98403809 33.12728516 -22.4909668 33.70800781 C-24 35 -24 35 -27 35 C-27 35.66 -27 36.32 -27 37 C-27.66 37 -28.32 37 -29 37 C-28.75220958 31.17692516 -26.9164302 28.09153628 -23.546875 23.40625 C-21.92995157 20.89103578 -20.94545255 18.4965481 -19.9375 15.6875 C-18.38059486 11.44853137 -16.67853924 9.68433945 -13 7 C-12.12056596 4.36539052 -12.12056596 4.36539052 -12 2 C-11.01 2.33 -10.02 2.66 -9 3 C-9 4.65 -9 6.3 -9 8 C-5.78796065 5.50174717 -2.82506863 2.9297008 0 0 Z " fill="#DDA48F" transform="translate(529,108)"/>
<path d="M0 0 C-4.049191 4.83290538 -7.96719209 6.3833652 -14 8 C-13.505 9.19625 -13.01 10.3925 -12.5 11.625 C-11.16329751 15.21500097 -10.44776585 18.13436094 -11 22 C-14.31371 24.20914 -15.3446021 24.22481553 -19.1875 24.125 C-20.08855469 24.10695312 -20.98960937 24.08890625 -21.91796875 24.0703125 C-22.60503906 24.04710937 -23.29210937 24.02390625 -24 24 C-24 22.68 -24 21.36 -24 20 C-25.32 20.33 -26.64 20.66 -28 21 C-31.06603774 16.58490566 -31.06603774 16.58490566 -30.78125 14.0625 C-29.86445986 11.64217403 -28.66888089 10.16557035 -26.9375 8.25 C-26.11572266 7.32960938 -26.11572266 7.32960938 -25.27734375 6.390625 C-24.85582031 5.93171875 -24.43429688 5.4728125 -24 5 C-21.03824877 5.61277612 -19.61941217 6.25372522 -17 8 C-17 6.35 -17 4.7 -17 3 C-16.34 3.0825 -15.68 3.165 -15 3.25 C-11.34533739 2.94544478 -9.08902135 1.61473137 -5.96484375 -0.22265625 C-3.56351782 -1.1726838 -2.39259644 -0.84726689 0 0 Z " fill="#F7F8FB" transform="translate(265,116)"/>
<path d="M0 0 C0.46793894 10.08668385 -0.01263367 20.06839497 -7 28 C-10.60226236 30.3334493 -13.66616115 32 -18 32 C-18.84108973 22.93492178 -17.67669113 17.18552842 -12 10 C-9.81839995 7.48415895 -7.63308608 5.04946391 -5 3 C-4.34 3 -3.68 3 -3 3 C-3 2.34 -3 1.68 -3 1 C-1 0 -1 0 0 0 Z " fill="#E1E7F8" transform="translate(177,108)"/>
<path d="M0 0 C3.625 1.0625 3.625 1.0625 6.0625 3.875 C8.52236005 8.91035455 8.15057059 14.60001225 7.625 20.0625 C5.69158053 21.99591947 2.25020879 21.23699133 -0.3125 21.25 C-1.57964844 21.26417969 -2.84679687 21.27835938 -4.15234375 21.29296875 C-7.375 21.0625 -7.375 21.0625 -9.375 19.0625 C-9.5703125 16.4609375 -9.5703125 16.4609375 -9.5 13.4375 C-9.48195313 12.43460938 -9.46390625 11.43171875 -9.4453125 10.3984375 C-9.42210937 9.62757812 -9.39890625 8.85671875 -9.375 8.0625 C-8.715 7.7325 -8.055 7.4025 -7.375 7.0625 C-6.69367549 5.40177151 -6.02757873 3.734733 -5.375 2.0625 C-3.375 0.0625 -3.375 0.0625 0 0 Z " fill="#5163D5" transform="translate(293.375,76.9375)"/>
<path d="M0 0 C0.33 0.99 0.66 1.98 1 3 C0.67 3.66 0.34 4.32 0 5 C0.99 5.33 1.98 5.66 3 6 C3 6.99 3 7.98 3 9 C2.34 9 1.68 9 1 9 C0.05675742 13.31196609 -0.48041715 17.62065881 -1 22 C-1.886875 21.62875 -2.77375 21.2575 -3.6875 20.875 C-7.33758513 19.5587081 -7.33758513 19.5587081 -12 22 C-12.33 17.71 -12.66 13.42 -13 9 C-13.66 9 -14.32 9 -15 9 C-15 7.68 -15 6.36 -15 5 C-14.34 5 -13.68 5 -13 5 C-12.938125 4.21625 -12.87625 3.4325 -12.8125 2.625 C-12 0 -12 0 -9.875 -1.4375 C-6.03327655 -2.18914154 -3.59889937 -1.45340167 0 0 Z " fill="#ECB587" transform="translate(137,130)"/>
<path d="M0 0 C16.5 0 33 0 50 0 C50 1.65 50 3.3 50 5 C33.17 5 16.34 5 -1 5 C-0.67 3.35 -0.34 1.7 0 0 Z " fill="#3B466D" transform="translate(464,154)"/>
<path d="M0 0 C1.65 0 3.3 0 5 0 C5 15.51 5 31.02 5 47 C3.35 47 1.7 47 0 47 C0 31.49 0 15.98 0 0 Z " fill="#E99863" transform="translate(266,118)"/>
<path d="M0 0 C5.94 0.99 5.94 0.99 12 2 C12 10.58 12 19.16 12 28 C10.68 28 9.36 28 8 28 C8 29.32 8 30.64 8 32 C16.58 32 25.16 32 34 32 C34 34.31 34 36.62 34 39 C33.67 39 33.34 39 33 39 C33 37.02 33 35.04 33 33 C24.75 33 16.5 33 8 33 C8 38.94 8 44.88 8 51 C6.02 51 4.04 51 2 51 C2 50.67 2 50.34 2 50 C3.65 50 5.3 50 7 50 C7 34.49 7 18.98 7 3 C5.35 3 3.7 3 2 3 C2 11.25 2 19.5 2 28 C1.67 28 1.34 28 1 28 C0.67 18.76 0.34 9.52 0 0 Z " fill="#C3ADB7" transform="translate(264,115)"/>
<path d="M0 0 C8.25 0 16.5 0 25 0 C25 1.98 25 3.96 25 6 C23.865625 6.474375 22.73125 6.94875 21.5625 7.4375 C18.24259834 8.63622083 18.24259834 8.63622083 17 10 C14.13732433 10.07325168 11.299281 10.09238205 8.4375 10.0625 C7.63119141 10.05798828 6.82488281 10.05347656 5.99414062 10.04882812 C3.99606244 10.03700518 1.99802217 10.01906914 0 10 C0 6.7 0 3.4 0 0 Z " fill="#FCFDFD" transform="translate(272,148)"/>
<path d="M0 0 C0.33 0 0.66 0 1 0 C2.19287411 3.87684087 3 6.91621923 3 11 C0.69 11 -1.62 11 -4 11 C-3.67 15.62 -3.34 20.24 -3 25 C-8.4867882 27.19471528 -12.35950526 27.88016491 -18 26 C-17.40899339 22.59031029 -16.26023444 20.83904884 -13.91015625 18.328125 C-12.98106445 17.33232422 -12.98106445 17.33232422 -12.03320312 16.31640625 C-11.38287109 15.63449219 -10.73253906 14.95257813 -10.0625 14.25 C-9.41603516 13.55261719 -8.76957031 12.85523437 -8.10351562 12.13671875 C-4.52324135 8.33709226 -4.52324135 8.33709226 -3 7 C-2.34 7 -1.68 7 -1 7 C-1.020625 6.030625 -1.04125 5.06125 -1.0625 4.0625 C-1 1 -1 1 0 0 Z " fill="#7881D8" transform="translate(530,111)"/>
<path d="M0 0 C5.75 0.875 5.75 0.875 8 2 C8.59423828 3.94946289 8.59423828 3.94946289 9.0703125 6.47265625 C9.24433594 7.37177734 9.41835938 8.27089844 9.59765625 9.19726562 C9.77167969 10.14279297 9.94570313 11.08832031 10.125 12.0625 C10.30675781 13.01189453 10.48851562 13.96128906 10.67578125 14.93945312 C11.12493737 17.2916128 11.56596193 19.64501178 12 22 C10.02 21.67 8.04 21.34 6 21 C6 20.34 6 19.68 6 19 C4.68 19.99 3.36 20.98 2 22 C2 20.35 2 18.7 2 17 C-0.97 17 -3.94 17 -7 17 C-4.702779 15.25728062 -2.40133271 13.60088848 0 12 C0.36498034 9.10391601 0.36498034 9.10391601 0.1875 5.875 C0.16042969 4.77929688 0.13335938 3.68359375 0.10546875 2.5546875 C0.07066406 1.71164063 0.03585937 0.86859375 0 0 Z " fill="#CFD5F3" transform="translate(512,137)"/>
<path d="M0 0 C5.28 0 10.56 0 16 0 C16 22.77 16 45.54 16 69 C11.38 69 6.76 69 2 69 C2 68.67 2 68.34 2 68 C7.94 67.505 7.94 67.505 14 67 C14 45.55 14 24.1 14 2 C8.06 2.495 8.06 2.495 2 3 C1.01 3 0.02 3 -1 3 C-0.67 2.01 -0.34 1.02 0 0 Z " fill="#BCC5F0" transform="translate(135,87)"/>
<path d="M0 0 C2.81256281 -0.02684312 5.62487241 -0.04676188 8.4375 -0.0625 C9.23994141 -0.07087891 10.04238281 -0.07925781 10.86914062 -0.08789062 C12.91295221 -0.0965143 14.95683902 -0.0522815 17 0 C18 1 18 1 18.12025452 3.09437561 C18.1169236 4.47670631 18.1169236 4.47670631 18.11352539 5.88696289 C18.11344986 6.92796646 18.11337433 7.96897003 18.11329651 9.04151917 C18.10813522 10.1737944 18.10297394 11.30606964 18.09765625 12.47265625 C18.0962413 13.62543564 18.09482635 14.77821503 18.09336853 15.96592712 C18.08775005 19.66481064 18.07519442 23.36363464 18.0625 27.0625 C18.05748738 29.56315017 18.05292406 32.06380129 18.04882812 34.56445312 C18.03777462 40.70965588 18.02101852 46.85482369 18 53 C17.01 53 16.02 53 15 53 C15 36.17 15 19.34 15 2 C10.05 2 5.1 2 0 2 C0 1.34 0 0.68 0 0 Z " fill="#6776B4" transform="translate(524,101)"/>
<path d="M0 0 C2.5 2 2.5 2 4 4 C3.505 3.835 3.01 3.67 2.5 3.5 C-1.03444089 2.79311182 -4.39690701 2.93994845 -8 3 C-8.66 4.98 -9.32 6.96 -10 9 C-9.236875 8.814375 -8.47375 8.62875 -7.6875 8.4375 C-5 8 -5 8 -2 9 C-1.67 8.01 -1.34 7.02 -1 6 C-0.67 6.66 -0.34 7.32 0 8 C-0.77734375 9.7265625 -0.77734375 9.7265625 -1.9375 11.625 C-2.618125 12.73875 -3.29875 13.8525 -4 15 C-4.99 15 -5.98 15 -7 15 C-7.33 16.65 -7.66 18.3 -8 20 C-5.36 20 -2.72 20 0 20 C0 20.33 0 20.66 0 21 C-10.22691293 21.40105541 -10.22691293 21.40105541 -14 19 C-16.3277045 15.12049249 -16.54529869 11.44028931 -16 7 C-12.29776121 0.63499716 -7.17553896 -1.11170322 0 0 Z " fill="#EEAB80" transform="translate(462,91)"/>
<path d="M0 0 C4.29 0 8.58 0 13 0 C13 3.63 13 7.26 13 11 C8.05 11.66 3.1 12.32 -2 13 C-1.53875845 8.51936782 -1.09335878 4.37343514 0 0 Z " fill="#E5EAF9" transform="translate(252,148)"/>
<path d="M0 0 C4.29 0 8.58 0 13 0 C13.33 0.99 13.66 1.98 14 3 C16.475 3.495 16.475 3.495 19 4 C18.67 5.32 18.34 6.64 18 8 C10.41 8 2.82 8 -5 8 C-5.33 6.68 -5.66 5.36 -6 4 C-4.7934375 3.566875 -4.7934375 3.566875 -3.5625 3.125 C-0.8673532 2.26737432 -0.8673532 2.26737432 0 0 Z " fill="#283076" transform="translate(116,83)"/>
<path d="M0 0 C0.99 0.33 1.98 0.66 3 1 C3.495 2.485 3.495 2.485 4 4 C-4.91 4 -13.82 4 -23 4 C-22.34 5.98 -21.68 7.96 -21 10 C8.205 10.495 8.205 10.495 38 11 C38 11.33 38 11.66 38 12 C22.655 12.495 22.655 12.495 7 13 C7 13.33 7 13.66 7 14 C2.85572898 14.04976954 -1.28837953 14.08589288 -5.43286133 14.10986328 C-6.84011876 14.11986557 -8.2473557 14.13347178 -9.65454102 14.15087891 C-11.68771448 14.17538366 -13.72061106 14.18654083 -15.75390625 14.1953125 C-16.97408447 14.20578613 -18.1942627 14.21625977 -19.45141602 14.22705078 C-23.30506028 13.98048118 -26.34213 13.18578175 -30 12 C-30 11.34 -30 10.68 -30 10 C-28.02 9.67 -26.04 9.34 -24 9 C-24 7.02 -24 5.04 -24 3 C-11.625 2.505 -11.625 2.505 1 2 C0.67 1.34 0.34 0.68 0 0 Z " fill="#BDC6F0" transform="translate(117,154)"/>
<path d="M0 0 C0.33 0 0.66 0 1 0 C1.495 3.465 1.495 3.465 2 7 C-10.87 7 -23.74 7 -37 7 C-37 8.98 -37 10.96 -37 13 C-36.01 13.33 -35.02 13.66 -34 14 C-35.32 14 -36.64 14 -38 14 C-38 11.03 -38 8.06 -38 5 C-30.08 4.505 -30.08 4.505 -22 4 C-22.33 3.34 -22.66 2.68 -23 2 C-15.41 2 -7.82 2 0 2 C0 1.34 0 0.68 0 0 Z " fill="#7A88C1" transform="translate(350,141)"/>
<path d="M0 0 C0.95310059 0.01047363 1.90620117 0.02094727 2.88818359 0.03173828 C4.43505859 0.04140625 4.43505859 0.04140625 6.01318359 0.05126953 C7.63353516 0.07640625 7.63353516 0.07640625 9.28662109 0.10205078 C10.37458984 0.11107422 11.46255859 0.12009766 12.58349609 0.12939453 C15.27642261 0.15301669 17.96891365 0.18595522 20.66162109 0.22705078 C20.66162109 1.21705078 20.66162109 2.20705078 20.66162109 3.22705078 C13.07162109 3.22705078 5.48162109 3.22705078 -2.33837891 3.22705078 C-2.33837891 15.76705078 -2.33837891 28.30705078 -2.33837891 41.22705078 C-2.99837891 41.22705078 -3.65837891 41.22705078 -4.33837891 41.22705078 C-4.38773101 35.70948602 -4.42407552 30.19204907 -4.44824219 24.67431641 C-4.45831425 22.79636396 -4.47197252 20.91842725 -4.48925781 19.04052734 C-4.51345344 16.34484988 -4.52484973 13.64937932 -4.53369141 10.95361328 C-4.54401398 10.11085846 -4.55433655 9.26810364 -4.56497192 8.39981079 C-4.56537035 6.34083831 -4.46095478 4.28237144 -4.33837891 2.22705078 C-2.33837891 0.22705078 -2.33837891 0.22705078 0 0 Z " fill="#6575B3" transform="translate(255.33837890625,77.77294921875)"/>
<path d="M0 0 C2.0625 0.4375 2.0625 0.4375 4 1 C3.360625 1.185625 2.72125 1.37125 2.0625 1.5625 C1.381875 2.036875 0.70125 2.51125 0 3 C-0.33 5.31 -0.66 7.62 -1 10 C4.94 10.33 10.88 10.66 17 11 C17 11.33 17 11.66 17 12 C10.73 12 4.46 12 -2 12 C-2 12.99 -2 13.98 -2 15 C1.63 15 5.26 15 9 15 C8.01 15.66 7.02 16.32 6 17 C6.30769707 18.81332154 6.62129064 20.62564345 6.9375 22.4375 C7.11152344 23.44683594 7.28554688 24.45617187 7.46484375 25.49609375 C7.74751097 27.9287438 7.74751097 27.9287438 9 29 C9.04063832 30.66617115 9.042721 32.33388095 9 34 C7.35 34 5.7 34 4 34 C5.485 33.505 5.485 33.505 7 33 C6.34 29.04 5.68 25.08 5 21 C4.01 21 3.02 21 2 21 C1.34 21 0.68 21 0 21 C-0.2475 21.61875 -0.495 22.2375 -0.75 22.875 C-2.20628639 25.35068687 -3.37812506 25.95125002 -6 27 C-6 25.35 -6 23.7 -6 22 C-5.34 22 -4.68 22 -4 22 C-3.95101562 20.98679687 -3.90203125 19.97359375 -3.8515625 18.9296875 C-3.77647436 17.57810089 -3.70092919 16.22653962 -3.625 14.875 C-3.5940625 14.20984375 -3.563125 13.5446875 -3.53125 12.859375 C-2.94824219 2.94824219 -2.94824219 2.94824219 0 0 Z " fill="#ADAFCC" transform="translate(526,89)"/>
<path d="M0 0 C6.6 0 13.2 0 20 0 C19.67 0.99 19.34 1.98 19 3 C15.96826719 4.19493974 12.97540573 4.10493955 9.75 4.0625 C8.85796875 4.05347656 7.9659375 4.04445313 7.046875 4.03515625 C6.37140625 4.02355469 5.6959375 4.01195313 5 4 C5 4.66 5 5.32 5 6 C3.35 6 1.7 6 0 6 C0 24.15 0 42.3 0 61 C-0.33 61 -0.66 61 -1 61 C-1.02316465 53.48955919 -1.04093616 45.97912207 -1.05181217 38.46865368 C-1.05703196 34.98128689 -1.06411324 31.49394453 -1.07543945 28.0065918 C-1.08837754 23.99788172 -1.09323569 19.98919733 -1.09765625 15.98046875 C-1.10281754 14.72727341 -1.10797882 13.47407806 -1.11329651 12.1829071 C-1.11337204 11.02193008 -1.11344757 9.86095306 -1.11352539 8.66479492 C-1.115746 7.64109299 -1.11796661 6.61739105 -1.12025452 5.56266785 C-1 3 -1 3 0 0 Z " fill="#7284E7" transform="translate(96,83)"/>
<path d="M0 0 C0.99 0.33 1.98 0.66 3 1 C3.33 2.98 3.66 4.96 4 7 C6.49361571 5.79618552 8.68143083 4.54571278 11 3 C8.51560556 8.87220503 4.56163702 13.00527237 -1 16 C-1.680625 16.5775 -2.36125 17.155 -3.0625 17.75 C-5 19 -5 19 -7.25 18.6875 C-7.8275 18.460625 -8.405 18.23375 -9 18 C-8.46760392 13.47463334 -6.72876727 10.61160373 -4 7 C-3.01 6.34 -2.02 5.68 -1 5 C-0.27034634 2.43717258 -0.27034634 2.43717258 0 0 Z " fill="#DA997A" transform="translate(517,110)"/>
<path d="M0 0 C1.32 0.33 2.64 0.66 4 1 C5.91561254 1.06688591 7.83335592 1.08531719 9.75 1.0625 C10.73484375 1.05347656 11.7196875 1.04445313 12.734375 1.03515625 C13.48203125 1.02355469 14.2296875 1.01195313 15 1 C14.67 1.66 14.34 2.32 14 3 C12.00390625 3.44921875 12.00390625 3.44921875 9.5625 3.6875 C8.75941406 3.77386719 7.95632813 3.86023438 7.12890625 3.94921875 C5 4 5 4 3 3 C2.67 9.27 2.34 15.54 2 22 C8.6 22 15.2 22 22 22 C22 22.66 22 23.32 22 24 C21.09233887 24.01458252 20.18467773 24.02916504 19.24951172 24.04418945 C15.8609069 24.10548149 12.47308311 24.17967576 9.08496094 24.26245117 C7.62250292 24.29557135 6.15992105 24.32364305 4.69726562 24.34643555 C2.58670597 24.38022175 0.47726814 24.4325438 -1.6328125 24.48828125 C-3.53377686 24.52755737 -3.53377686 24.52755737 -5.47314453 24.56762695 C-9.25283316 25.03099595 -11.67511055 26.21015575 -15 28 C-15.99 28 -16.98 28 -18 28 C-11.47406943 22.67621453 -10.73263557 22.97326356 -1 22 C-0.67 14.74 -0.34 7.48 0 0 Z " fill="#878AA7" transform="translate(449,110)"/>
<path d="M0 0 C5.3570519 1.82139765 8.02760161 3.79161148 11.51171875 8.21484375 C13.72631029 10.87119108 16.28589715 12.86749062 19 15 C18.67 15.99 18.34 16.98 18 18 C13.188563 17.10899315 9.91768706 14.96474793 6.5625 11.4375 C3.77675987 8.78764963 1.68454375 7.9425577 -2 7 C-1.125 2.25 -1.125 2.25 0 0 Z " fill="#D19682" transform="translate(68,115)"/>
<path d="M0 0 C0.33 0 0.66 0 1 0 C1 8.25 1 16.5 1 25 C2.65 25 4.3 25 6 25 C6 25.33 6 25.66 6 26 C-0.6 26 -7.2 26 -14 26 C-13.67 25.34 -13.34 24.68 -13 24 C-11.35 24.33 -9.7 24.66 -8 25 C-7.67 23.35 -7.34 21.7 -7 20 C-6.34 20 -5.68 20 -5 20 C-4.731875 18.741875 -4.46375 17.48375 -4.1875 16.1875 C-2.9814977 10.73879894 -1.50622713 5.37221011 0 0 Z " fill="#ECEBF0" transform="translate(244,149)"/>
<path d="M0 0 C0.33 0 0.66 0 1 0 C0.61876025 8.67649075 -0.19108873 17.21731004 -1.4375 25.8125 C-1.62082886 27.12879395 -1.62082886 27.12879395 -1.80786133 28.47167969 C-1.93185303 29.2918457 -2.05584473 30.11201172 -2.18359375 30.95703125 C-2.29243896 31.68897705 -2.40128418 32.42092285 -2.51342773 33.17504883 C-3 35 -3 35 -5 37 C-6.23689062 34.52621876 -6.13310087 32.82084683 -6.125 30.0625 C-6.12757812 29.18722656 -6.13015625 28.31195313 -6.1328125 27.41015625 C-6 25 -6 25 -5 22 C-4.93029948 19.60509014 -4.91551997 17.20832309 -4.9375 14.8125 C-4.94652344 13.54019531 -4.95554687 12.26789063 -4.96484375 10.95703125 C-4.97644531 9.98121094 -4.98804687 9.00539062 -5 8 C-6.32 7.67 -7.64 7.34 -9 7 C-9 6.67 -9 6.34 -9 6 C-6.36 5.67 -3.72 5.34 -1 5 C-0.67 3.35 -0.34 1.7 0 0 Z " fill="#CED4F3" transform="translate(74,133)"/>
<path d="M0 0 C0.33 0 0.66 0 1 0 C1 7.59 1 15.18 1 23 C-2.63 23 -6.26 23 -10 23 C-9.09452545 18.47262726 -8.68347462 17.18675696 -6.125 13.75 C-3.07192318 9.38321945 -1.38024632 5.12144028 0 0 Z " fill="#FAFAFB" transform="translate(66,148)"/>
<path d="M0 0 C1.32 0 2.64 0 4 0 C4.0269501 2.93756119 4.04681474 5.87487555 4.0625 8.8125 C4.07087891 9.64587891 4.07925781 10.47925781 4.08789062 11.33789062 C4.09111328 12.14033203 4.09433594 12.94277344 4.09765625 13.76953125 C4.10289307 14.50792236 4.10812988 15.24631348 4.11352539 16.00708008 C4 18 4 18 3 21 C2.06253009 24.13778872 1.88332208 26.93139694 1.90234375 30.203125 C1.90556641 31.1828125 1.90878906 32.1625 1.91210938 33.171875 C1.92048828 34.18765625 1.92886719 35.2034375 1.9375 36.25 C1.94201172 37.28125 1.94652344 38.3125 1.95117188 39.375 C1.96293912 41.91672573 1.97937989 44.45833319 2 47 C1.34 47 0.68 47 0 47 C0 31.49 0 15.98 0 0 Z " fill="#EBA379" transform="translate(266,118)"/>
<path d="M0 0 C4.62 0 9.24 0 14 0 C14 2.64 14 5.28 14 8 C9.38 8 4.76 8 0 8 C0 5.36 0 2.72 0 0 Z " fill="#36416A" transform="translate(298,147)"/>
<path d="M0 0 C7.22248577 -0.02548786 14.44495981 -0.04292452 21.66748047 -0.05493164 C24.12126092 -0.05994067 26.57503842 -0.06674977 29.02880859 -0.07543945 C32.56869234 -0.08765586 36.10853641 -0.09326276 39.6484375 -0.09765625 C41.277173 -0.10539818 41.277173 -0.10539818 42.93881226 -0.11329651 C49.35550636 -0.11376238 55.63010793 0.21771991 62 1 C62 1.33 62 1.66 62 2 C33.84846857 3.19388403 33.84846857 3.19388403 22 3 C22 2.67 22 2.34 22 2 C14.74 1.67 7.48 1.34 0 1 C0 0.67 0 0.34 0 0 Z " fill="#6676B6" transform="translate(276,144)"/>
<path d="M0 0 C2.0625 0.4375 2.0625 0.4375 4 1 C4.33 2.65 4.66 4.3 5 6 C0.545 6.495 0.545 6.495 -4 7 C-4.33 10.3 -4.66 13.6 -5 17 C-0.71 17 3.58 17 8 17 C8 14.03 8 11.06 8 8 C8.33 8 8.66 8 9 8 C9 11.63 9 15.26 9 19 C6.70858714 19.05384521 4.41681812 19.09272087 2.125 19.125 C0.84882813 19.14820312 -0.42734375 19.17140625 -1.7421875 19.1953125 C-5 19 -5 19 -7 17 C-7.1953125 14.3984375 -7.1953125 14.3984375 -7.125 11.375 C-7.10695313 10.37210938 -7.08890625 9.36921875 -7.0703125 8.3359375 C-7.04710937 7.56507812 -7.02390625 6.79421875 -7 6 C-5.35 5.67 -3.7 5.34 -2 5 C-1.855625 4.360625 -1.71125 3.72125 -1.5625 3.0625 C-1 1 -1 1 0 0 Z " fill="#6F7CD4" transform="translate(291,79)"/>
<path d="M0 0 C0.33 0 0.66 0 1 0 C1 11.55 1 23.1 1 35 C-9 34 -9 34 -11 33 C-10.34 31.02 -9.68 29.04 -9 27 C-6.625 26.375 -6.625 26.375 -4 26 C-2 28 -2 28 -1.875 30.625 C-1.91625 31.40875 -1.9575 32.1925 -2 33 C-1.34 33 -0.68 33 0 33 C0 22.11 0 11.22 0 0 Z " fill="#98A5DD" transform="translate(275,82)"/>
<path d="M0 0 C2.15990445 1.6385482 2.91289061 2.82610674 3.8125 5.375 C3.8125 6.695 3.8125 8.015 3.8125 9.375 C-0.1475 9.375 -4.1075 9.375 -8.1875 9.375 C-7.8575 6.735 -7.5275 4.095 -7.1875 1.375 C-2.82386364 -0.80681818 -2.82386364 -0.80681818 0 0 Z " fill="#D3D9ED" transform="translate(532.1875,90.625)"/>
<path d="M0 0 C4.95 0 9.9 0 15 0 C15 16.83 15 33.66 15 51 C14.67 51 14.34 51 14 51 C14 34.83 14 18.66 14 2 C13.34 2 12.68 2 12 2 C11.67 3.65 11.34 5.3 11 7 C9.68 6.34 8.36 5.68 7 5 C7.33 4.01 7.66 3.02 8 2 C5.36 1.67 2.72 1.34 0 1 C0 0.67 0 0.34 0 0 Z " fill="#909ED7" transform="translate(524,103)"/>
<path d="M0 0 C0.99 0 1.98 0 3 0 C4.64681249 6.30760257 6.26309887 12.51527007 7 19 C4.0625 18.625 4.0625 18.625 1 18 C-0.59412284 14.81175432 -0.10174735 11.37103338 -0.0625 7.875 C-0.05798828 7.12089844 -0.05347656 6.36679688 -0.04882812 5.58984375 C-0.03703499 3.72652873 -0.01909942 1.86325445 0 0 Z " fill="#B6C0DF" transform="translate(517,140)"/>
<path d="M0 0 C0.33 0 0.66 0 1 0 C0.18754124 11.0109542 0.18754124 11.0109542 -2 15 C-2.99 15.495 -2.99 15.495 -4 16 C-4.65213292 18.02463255 -4.65213292 18.02463255 -5 20 C-6.65 20 -8.3 20 -10 20 C-9.690625 19.45730469 -9.38125 18.91460937 -9.0625 18.35546875 C-7.46725889 14.81895997 -7.12850111 11.17873518 -6.5625 7.36328125 C-6.376875 6.58339844 -6.19125 5.80351562 -6 5 C-5.34 4.67 -4.68 4.34 -4 4 C-3.34 4.66 -2.68 5.32 -2 6 C-1.34 4.02 -0.68 2.04 0 0 Z " fill="#7A85CE" transform="translate(241,154)"/>
<path d="M0 0 C0.33 0 0.66 0 1 0 C2.19287411 3.87684087 3 6.91621923 3 11 C1.72125 11.0825 0.4425 11.165 -0.875 11.25 C-3.06368189 11.46191288 -3.06368189 11.46191288 -5 12 C-6.30065921 13.93383287 -6.30065921 13.93383287 -7 16 C-8.33333333 16.33333333 -9.66666667 16.66666667 -11 17 C-12.14209817 18.78228936 -12.14209817 18.78228936 -13 21 C-14.5 23.75 -14.5 23.75 -16 26 C-16.66 26 -17.32 26 -18 26 C-17.40899339 22.59031029 -16.26023444 20.83904884 -13.91015625 18.328125 C-12.98106445 17.33232422 -12.98106445 17.33232422 -12.03320312 16.31640625 C-11.38287109 15.63449219 -10.73253906 14.95257813 -10.0625 14.25 C-9.41603516 13.55261719 -8.76957031 12.85523437 -8.10351562 12.13671875 C-4.52324135 8.33709226 -4.52324135 8.33709226 -3 7 C-2.34 7 -1.68 7 -1 7 C-1.020625 6.030625 -1.04125 5.06125 -1.0625 4.0625 C-1 1 -1 1 0 0 Z " fill="#8F80B0" transform="translate(530,111)"/>
<path d="M0 0 C2.64 0.99 5.28 1.98 8 3 C8 3.66 8 4.32 8 5 C8.66 5 9.32 5 10 5 C10.33 6.32 10.66 7.64 11 9 C9.68 9 8.36 9 7 9 C6.67 9.99 6.34 10.98 6 12 C2.27549784 9.89484661 0.3204079 8.75732776 -1.375 4.75 C-1.58125 3.8425 -1.7875 2.935 -2 2 C-1.34 1.34 -0.68 0.68 0 0 Z " fill="#DAD1DC" transform="translate(57,106)"/>
<path d="M0 0 C0.66 0 1.32 0 2 0 C2.02703381 1.93742341 2.04641125 3.87495479 2.0625 5.8125 C2.07410156 6.89144531 2.08570312 7.97039062 2.09765625 9.08203125 C2 12 2 12 1 15 C0.85747599 16.64176695 0.77973245 18.28982655 0.75 19.9375 C0.72421875 20.79214844 0.6984375 21.64679688 0.671875 22.52734375 C1.06123438 25.46144478 2.06649829 26.80700201 4 29 C2.35 29 0.7 29 -1 29 C-3.59412771 20.4558492 -2.34918087 9.72803428 -1 1 C-0.67 0.67 -0.34 0.34 0 0 Z " fill="#BCC5E0" transform="translate(68,143)"/>
<path d="M0 0 C1 1 1 1 1.1875 3.9375 C1 7 1 7 -1 9 C-4.29714793 8.67028521 -5.6226839 8.3773161 -8 6 C-7.75 2.9375 -7.75 2.9375 -7 0 C-4.31633121 -1.3418344 -2.84719317 -0.73004953 0 0 Z " fill="#FEF7EB" transform="translate(134,133)"/>
<path d="M0 0 C4.59306496 1.4859916 7.43569245 3.85014682 11 7 C10.67 7.99 10.34 8.98 10 10 C6.7 10 3.4 10 0 10 C0 6.7 0 3.4 0 0 Z " fill="#EFF1F7" transform="translate(314,75)"/>
<path d="M0 0 C1.32 0 2.64 0 4 0 C3.34 2.31 2.68 4.62 2 7 C2.78375 6.95875 3.5675 6.9175 4.375 6.875 C7 7 7 7 9 9 C8.625 11.125 8.625 11.125 8 13 C8 12.01 8 11.02 8 10 C1.565 10.495 1.565 10.495 -5 11 C-2.25 3.375 -2.25 3.375 0 0 Z " fill="#837BB0" transform="translate(64,115)"/>
<path d="M0 0 C0.66 0 1.32 0 2 0 C2.24911914 8.58077055 1.69882188 16.58173087 0 25 C0.66 25.33 1.32 25.66 2 26 C2 26.66 2 27.32 2 28 C2.66 28.66 3.32 29.32 4 30 C2.35 30 0.7 30 -1 30 C-1.97403725 26.73774826 -2.13415799 23.77261339 -2.125 20.375 C-2.12757813 19.41335937 -2.13015625 18.45171875 -2.1328125 17.4609375 C-2 15 -2 15 -1 13 C-0.77049681 10.795636 -0.58924067 8.58607827 -0.4375 6.375 C-0.35371094 5.18648437 -0.26992187 3.99796875 -0.18359375 2.7734375 C-0.12300781 1.85820312 -0.06242188 0.94296875 0 0 Z " fill="#6873B9" transform="translate(246,144)"/>
<path d="M0 0 C0 3.74016583 -0.9341591 4.45276193 -3.375 7.1875 C-4.00148438 7.90292969 -4.62796875 8.61835938 -5.2734375 9.35546875 C-7 11 -7 11 -9 11 C-9 11.66 -9 12.32 -9 13 C-9.66 13 -10.32 13 -11 13 C-11.66 14.32 -12.32 15.64 -13 17 C-13.99 16.67 -14.98 16.34 -16 16 C-14.54568161 11.87943123 -12.76698387 8.39943732 -10 5 C-8.33388095 4.957279 -6.66617115 4.95936168 -5 5 C-2.18668622 2.60416349 -2.18668622 2.60416349 0 0 Z " fill="#E09063" transform="translate(518,123)"/>
<path d="M0 0 C6.6 0 13.2 0 20 0 C19.67 0.99 19.34 1.98 19 3 C15.96826719 4.19493974 12.97540573 4.10493955 9.75 4.0625 C8.85796875 4.05347656 7.9659375 4.04445313 7.046875 4.03515625 C6.37140625 4.02355469 5.6959375 4.01195313 5 4 C5 4.66 5 5.32 5 6 C4.01 6 3.02 6 2 6 C2 5.34 2 4.68 2 4 C2.66 4 3.32 4 4 4 C4 3.01 4 2.02 4 1 C2.68 0.67 1.36 0.34 0 0 Z " fill="#7181D7" transform="translate(96,83)"/>
<path d="M0 0 C7.59 0 15.18 0 23 0 C23 0.99 23 1.98 23 3 C15.41 3 7.82 3 0 3 C0 2.01 0 1.02 0 0 Z " fill="#6C7BBA" transform="translate(253,78)"/>
<path d="M0 0 C1.32 0 2.64 0 4 0 C4 0.66 4 1.32 4 2 C5.32 2 6.64 2 8 2 C8 1.34 8 0.68 8 0 C8.99 0 9.98 0 11 0 C11 2.64 11 5.28 11 8 C10.113125 7.62875 9.22625 7.2575 8.3125 6.875 C4.59173995 5.89215772 3.32561865 6.23937836 0 8 C0 5.36 0 2.72 0 0 Z " fill="#4F557A" transform="translate(125,144)"/>
<path d="M0 0 C1.77669223 3.06156654 2.24050818 5.24036215 2.1953125 8.765625 C2.18886719 9.65507812 2.18242187 10.54453125 2.17578125 11.4609375 C2.15902344 12.38132813 2.14226562 13.30171875 2.125 14.25 C2.11597656 15.18585938 2.10695313 16.12171875 2.09765625 17.0859375 C2.07413636 19.39088657 2.04126853 21.6953116 2 24 C1.01 24 0.02 24 -1 24 C-1.02887236 20.18751574 -1.04675492 16.3750593 -1.0625 12.5625 C-1.07087891 11.47388672 -1.07925781 10.38527344 -1.08789062 9.26367188 C-1.09111328 8.22919922 -1.09433594 7.19472656 -1.09765625 6.12890625 C-1.10289307 5.17056885 -1.10812988 4.21223145 -1.11352539 3.22485352 C-1 1 -1 1 0 0 Z " fill="#9FA9DE" transform="translate(274,119)"/>
<path d="M0 0 C2.97851562 0.53710938 2.97851562 0.53710938 5.95703125 1.07421875 C5.95703125 2.06421875 5.95703125 3.05421875 5.95703125 4.07421875 C-1.15072732 6.75097038 -6.57164601 7.2667568 -14.04296875 6.07421875 C-14.70296875 6.07421875 -15.36296875 6.07421875 -16.04296875 6.07421875 C-16.04296875 5.41421875 -16.04296875 4.75421875 -16.04296875 4.07421875 C-15.28371094 4.03683594 -14.52445313 3.99945313 -13.7421875 3.9609375 C-12.74832031 3.89519531 -11.75445313 3.82945312 -10.73046875 3.76171875 C-9.74433594 3.70371094 -8.75820313 3.64570313 -7.7421875 3.5859375 C-4.27673499 2.92895591 -3.33990933 0.12133514 0 0 Z " fill="#D4D9E9" transform="translate(546.04296875,155.92578125)"/>
<path d="M0 0 C0.99 0 1.98 0 3 0 C3 0.66 3 1.32 3 2 C3.66 2 4.32 2 5 2 C4.6875 3.9375 4.6875 3.9375 4 6 C3.01 6.33 2.02 6.66 1 7 C-0.20882096 9.00016466 -0.20882096 9.00016466 -1 11 C-2.32 11 -3.64 11 -5 11 C-4.46972205 6.4926374 -2.80388725 3.5460927 0 0 Z " fill="#8082C3" transform="translate(513,117)"/>
<path d="M0 0 C2.00720923 0.28674418 4.0085944 0.61866701 6 1 C5.67 3.97 5.34 6.94 5 10 C3.02 10.33 1.04 10.66 -1 11 C-1.02688151 9.35425434 -1.04634123 7.70838587 -1.0625 6.0625 C-1.07410156 5.14597656 -1.08570313 4.22945313 -1.09765625 3.28515625 C-1 1 -1 1 0 0 Z " fill="#5769E7" transform="translate(287,85)"/>
<path d="M0 0 C4.49147355 3.23975141 7.65361445 5.5381526 11 10 C7.37 10 3.74 10 0 10 C0 6.7 0 3.4 0 0 Z " fill="#FDFDFE" transform="translate(328,65)"/>
<path d="M0 0 C0 8.25 0 16.5 0 25 C-1.65 25 -3.3 25 -5 25 C-4.01 24.67 -3.02 24.34 -2 24 C-2 17.07 -2 10.14 -2 3 C-2.99 2.67 -3.98 2.34 -5 2 C-2 0 -2 0 0 0 Z " fill="#9FAAE1" transform="translate(265,118)"/>
<path d="M0 0 C0.33 0.99 0.66 1.98 1 3 C-0.76114701 5.00932223 -2.53286463 7.00716745 -4.3125 9 C-4.81201172 9.57234375 -5.31152344 10.1446875 -5.82617188 10.734375 C-7.15598061 12.21389731 -8.57387123 13.61308462 -10 15 C-10.99 15 -11.98 15 -13 15 C-13 15.66 -13 16.32 -13 17 C-13.66 17 -14.32 17 -15 17 C-14.67 14.69 -14.34 12.38 -14 10 C-12.02 10.495 -12.02 10.495 -10 11 C-9.34 10.01 -8.68 9.02 -8 8 C-7.34 8 -6.68 8 -6 8 C-6 7.34 -6 6.68 -6 6 C-5.34 6 -4.68 6 -4 6 C-3.566875 5.071875 -3.566875 5.071875 -3.125 4.125 C-2 2 -2 2 0 0 Z " fill="#E6A684" transform="translate(515,128)"/>
<path d="M0 0 C1.98 0 3.96 0 6 0 C6 2.97 6 5.94 6 9 C4.68 8.34 3.36 7.68 2 7 C0.34259285 6.62331656 -1.32345271 6.27942455 -3 6 C-2 4 -1 2 0 0 Z " fill="#653C34" transform="translate(242,115)"/>
<path d="M0 0 C8.25 0 16.5 0 25 0 C25 0.33 25 0.66 25 1 C19.06 1 13.12 1 7 1 C7 1.66 7 2.32 7 3 C11.95 3 16.9 3 22 3 C22 3.33 22 3.66 22 4 C19.24993392 4.0270203 16.50013454 4.04684883 13.75 4.0625 C12.97269531 4.07087891 12.19539062 4.07925781 11.39453125 4.08789062 C10.26337891 4.09272461 10.26337891 4.09272461 9.109375 4.09765625 C8.07248535 4.10551147 8.07248535 4.10551147 7.01464844 4.11352539 C4.83810307 3.99087711 3.04469315 3.77159797 1 3 C0.67 2.01 0.34 1.02 0 0 Z " fill="#707ED3" transform="translate(129,83)"/>
<path d="M0 0 C3.96 0 7.92 0 12 0 C12 1.32 12 2.64 12 4 C7.71 4 3.42 4 -1 4 C-0.67 2.68 -0.34 1.36 0 0 Z " fill="#6A77B8" transform="translate(254,143)"/>
<path d="M0 0 C3 0 3 0 5.4375 2.25 C6.283125 3.1575 7.12875 4.065 8 5 C9.1446875 6.1446875 9.1446875 6.1446875 10.3125 7.3125 C10.869375 7.869375 11.42625 8.42625 12 9 C11.67 9.99 11.34 10.98 11 12 C8.14820529 11.64037102 7.10604616 11.11014144 5.078125 9.00390625 C4.47484375 8.19824219 3.8715625 7.39257812 3.25 6.5625 C2.63640625 5.75941406 2.0228125 4.95632812 1.390625 4.12890625 C0 2 0 2 0 0 Z " fill="#E1A27B" transform="translate(75,121)"/>
<path d="M0 0 C0.66 0 1.32 0 2 0 C2 0.66 2 1.32 2 2 C2.59538574 1.98952637 3.19077148 1.97905273 3.80419922 1.96826172 C6.49442343 1.92676051 9.18458037 1.90069296 11.875 1.875 C12.81214844 1.85824219 13.74929687 1.84148437 14.71484375 1.82421875 C15.61074219 1.81777344 16.50664063 1.81132813 17.4296875 1.8046875 C18.25710449 1.79421387 19.08452148 1.78374023 19.93701172 1.77294922 C22 2 22 2 24 4 C16.41 4 8.82 4 1 4 C0.67 2.68 0.34 1.36 0 0 Z " fill="#292F63" transform="translate(110,87)"/>
<path d="M0 0 C0.99 0.33 1.98 0.66 3 1 C2.8125 3.375 2.8125 3.375 2 6 C-0.5625 7.3125 -0.5625 7.3125 -3 8 C-3 8.99 -3 9.98 -3 11 C-2.01 11.33 -1.02 11.66 0 12 C-1.32 12 -2.64 12 -4 12 C-4 11.34 -4 10.68 -4 10 C-5.32 10.33 -6.64 10.66 -8 11 C-7.38125 10.443125 -6.7625 9.88625 -6.125 9.3125 C-3.92067926 6.91368037 -3.11221163 5.01886014 -2 2 C-1.34 1.34 -0.68 0.68 0 0 Z " fill="#A9A9AC" transform="translate(446,152)"/>
<path d="M0 0 C1.65 0 3.3 0 5 0 C5.66 1.98 6.32 3.96 7 6 C6 7 6 7 4.15234375 7.09765625 C2.1015625 7.06510417 0.05078125 7.03255208 -2 7 C-2 6.01 -2 5.02 -2 4 C-1.34 4 -0.68 4 0 4 C0 2.68 0 1.36 0 0 Z " fill="#F9F9FB" transform="translate(521,164)"/>
<path d="M0 0 C0 1.98 0 3.96 0 6 C-2.64 6 -5.28 6 -8 6 C-7.39816251 3.97954558 -6.72693904 1.97888961 -6 0 C-3.50907189 -1.24546405 -2.58919267 -0.7767578 0 0 Z " fill="#5E6AD0" transform="translate(272,109)"/>
<path d="M0 0 C3.63 0 7.26 0 11 0 C7.53258866 2.95749791 4.13126473 5.07848152 0 7 C0 4.69 0 2.38 0 0 Z " fill="#EBE3E9" transform="translate(272,148)"/>
<path d="M0 0 C0.66 0 1.32 0 2 0 C2 1.32 2 2.64 2 4 C3.98 4 5.96 4 8 4 C8.33 4.66 8.66 5.32 9 6 C6.69 6 4.38 6 2 6 C1.87625 7.134375 1.7525 8.26875 1.625 9.4375 C1.41875 10.613125 1.2125 11.78875 1 13 C0.01 13.495 0.01 13.495 -1 14 C-0.67 9.38 -0.34 4.76 0 0 Z " fill="#8080B5" transform="translate(239,136)"/>
<path d="M0 0 C0.33 0 0.66 0 1 0 C0.67 4.29 0.34 8.58 0 13 C-0.99 13.33 -1.98 13.66 -3 14 C-3.19263454 9.18413661 -2.81361417 5.48069384 -1 1 C-0.67 0.67 -0.34 0.34 0 0 Z " fill="#7883D0" transform="translate(249,155)"/>
<path d="M0 0 C0.33 0 0.66 0 1 0 C1.09688221 5.44693314 1.12862175 10.63904667 0 16 C-1.32 15.67 -2.64 15.34 -4 15 C-2.68 10.05 -1.36 5.1 0 0 Z " fill="#E3E9FC" transform="translate(244,149)"/>
<path d="M0 0 C2.475 0.495 2.475 0.495 5 1 C4.67 2.32 4.34 3.64 4 5 C4.99 5.33 5.98 5.66 7 6 C7 6.99 7 7.98 7 9 C6.34 9 5.68 9 5 9 C4.67 10.32 4.34 11.64 4 13 C3.67 12.34 3.34 11.68 3 11 C2.34 10.67 1.68 10.34 1 10 C1.32552083 7.98177083 1.65104167 5.96354167 1.9765625 3.9453125 C1.98429688 3.30335938 1.99203125 2.66140625 2 2 C1.34 1.34 0.68 0.68 0 0 Z " fill="#EDBB92" transform="translate(133,130)"/>
<path d="M0 0 C6.57692308 0.57692308 6.57692308 0.57692308 8 2 C8.04063832 3.66617115 8.042721 5.33388095 8 7 C7.34 7 6.68 7 6 7 C5.34 5.68 4.68 4.36 4 3 C2.01508358 3.26676204 2.01508358 3.26676204 0 4 C-0.33 4.99 -0.66 5.98 -1 7 C-1.66 7 -2.32 7 -3 7 C-2.25 2.25 -2.25 2.25 0 0 Z " fill="#3F4889" transform="translate(290,77)"/>
<path d="M0 0 C0.33 0.66 0.66 1.32 1 2 C0.22265625 3.7265625 0.22265625 3.7265625 -0.9375 5.625 C-1.618125 6.73875 -2.29875 7.8525 -3 9 C-3.66 9 -4.32 9 -5 9 C-6.6875 7.1875 -6.6875 7.1875 -8 5 C-7.67 4.01 -7.34 3.02 -7 2 C-4.03 2.495 -4.03 2.495 -1 3 C-0.67 2.01 -0.34 1.02 0 0 Z " fill="#F8CCA7" transform="translate(461,97)"/>
<path d="M0 0 C1.77586005 3.5517201 2.48627846 5.91767077 3.125 9.75 C3.29257812 10.73484375 3.46015625 11.7196875 3.6328125 12.734375 C3.81457031 13.85585937 3.81457031 13.85585937 4 15 C2.68 15 1.36 15 0 15 C0 10.05 0 5.1 0 0 Z " fill="#A5AED3" transform="translate(520,144)"/>
<path d="M0 0 C1.65 0 3.3 0 5 0 C5 1.98 5 3.96 5 6 C3.02 6.99 3.02 6.99 1 8 C0.26919734 6.02253397 -0.39421747 4.01927511 -1 2 C-0.67 1.34 -0.34 0.68 0 0 Z " fill="#858FD8" transform="translate(57,128)"/>
<path d="M0 0 C1.32 0 2.64 0 4 0 C3.34 2.31 2.68 4.62 2 7 C0.35 7.33 -1.3 7.66 -3 8 C-2.45276317 4.62537285 -1.9451 2.91765 0 0 Z " fill="#6A3934" transform="translate(64,115)"/>
<path d="M0 0 C0.99 0.33 1.98 0.66 3 1 C3.33 3.31 3.66 5.62 4 8 C3.01 8.66 2.02 9.32 1 10 C0.34 9.67 -0.32 9.34 -1 9 C-1.09765625 2.84765625 -1.09765625 2.84765625 -1 1 C-0.67 0.67 -0.34 0.34 0 0 Z " fill="#9F6255" transform="translate(517,110)"/>
<path d="M0 0 C0.33 0 0.66 0 1 0 C1 5.94 1 11.88 1 18 C0.34 18 -0.32 18 -1 18 C-1.33 16.02 -1.66 14.04 -2 12 C-3.65 12 -5.3 12 -7 12 C-7 11.67 -7 11.34 -7 11 C-4.69 11 -2.38 11 0 11 C0 7.37 0 3.74 0 0 Z " fill="#E7D6D0" transform="translate(265,148)"/>
<path d="M0 0 C3.36591866 1.44253657 5.51047079 3.33264727 8 6 C6.68 6 5.36 6 4 6 C3.67 6.66 3.34 7.32 3 8 C3 7.34 3 6.68 3 6 C1.68 5.34 0.36 4.68 -1 4 C-0.67 2.68 -0.34 1.36 0 0 Z " fill="#DAA17E" transform="translate(60,109)"/>
<path d="M0 0 C0.33 1.32 0.66 2.64 1 4 C-0.32 4 -1.64 4 -3 4 C-3 4.66 -3 5.32 -3 6 C-4.32 6 -5.64 6 -7 6 C-7 5.34 -7 4.68 -7 4 C-7.66 3.67 -8.32 3.34 -9 3 C-6.03 2.01 -3.06 1.02 0 0 Z " fill="#E0A97F" transform="translate(136,140)"/>
<path d="M0 0 C0.66 0.33 1.32 0.66 2 1 C2 1.66 2 2.32 2 3 C7.58500567 2.80101292 7.58500567 2.80101292 12 0 C12.33 1.32 12.66 2.64 13 4 C7.72 4 2.44 4 -3 4 C-2.01 2.68 -1.02 1.36 0 0 Z " fill="#8A7777" transform="translate(517,168)"/>
<path d="M0 0 C0.99 0 1.98 0 3 0 C5.33333333 14 5.33333333 14 2 19 C2 18.01 2 17.02 2 16 C1.34 15.67 0.68 15.34 0 15 C0.66 14.67 1.32 14.34 2 14 C1.2812193 6.95792295 1.2812193 6.95792295 0 0 Z " fill="#909CD0" transform="translate(251,124)"/>
<path d="M0 0 C0.33 0 0.66 0 1 0 C0.67 6.6 0.34 13.2 0 20 C-0.33 20 -0.66 20 -1 20 C-1 16.7 -1 13.4 -1 10 C-1.66 9.67 -2.32 9.34 -3 9 C-2.01 6.03 -1.02 3.06 0 0 Z " fill="#E1E6F9" transform="translate(66,148)"/>
<path d="M0 0 C3.96 0 7.92 0 12 0 C12 1.32 12 2.64 12 4 C7.80530429 3.40075776 3.99000166 2.42500059 0 1 C0 0.67 0 0.34 0 0 Z " fill="#1C2346" transform="translate(300,148)"/>
<path d="M0 0 C1.98 0 3.96 0 6 0 C5.01 0.495 5.01 0.495 4 1 C4 3.31 4 5.62 4 8 C3.01 8.33 2.02 8.66 1 9 C0.67 6.03 0.34 3.06 0 0 Z " fill="#C6C4D1" transform="translate(266,166)"/>
<path d="M0 0 C0.33 0.66 0.66 1.32 1 2 C3.01669827 3.13350534 3.01669827 3.13350534 5 4 C3.3745692 3.85904936 1.74965949 3.71207913 0.125 3.5625 C-0.77992187 3.48128906 -1.68484375 3.40007812 -2.6171875 3.31640625 C-5 3 -5 3 -7 2 C-7 1.34 -7 0.68 -7 0 C-3.88407501 -1.03864166 -2.9737344 -1.09036928 0 0 Z " fill="#DDE1EC" transform="translate(94,164)"/>
<path d="M0 0 C0.66 0.66 1.32 1.32 2 2 C-0.64 2.33 -3.28 2.66 -6 3 C-6 2.67 -6 2.34 -6 2 C-8.64 2 -11.28 2 -14 2 C-14 1.34 -14 0.68 -14 0 C-12.2300132 -0.19532961 -10.45895721 -0.38098882 -8.6875 -0.5625 C-7.70136719 -0.66691406 -6.71523438 -0.77132812 -5.69921875 -0.87890625 C-3 -1 -3 -1 0 0 Z " fill="#DCE1F4" transform="translate(544,160)"/>
<path d="M0 0 C0.33 0 0.66 0 1 0 C1 1.65 1 3.3 1 5 C1.99 5.33 2.98 5.66 4 6 C3.34 7.65 2.68 9.3 2 11 C0.35 11 -1.3 11 -3 11 C-2.690625 10.484375 -2.38125 9.96875 -2.0625 9.4375 C-0.70940713 6.33334577 -0.38640576 3.34884993 0 0 Z " fill="#776C88" transform="translate(234,163)"/>
<path d="M0 0 C0.33 0 0.66 0 1 0 C1 2.97 1 5.94 1 9 C-3 7 -3 7 -4 5 C-2.69254251 3.31295807 -1.35827971 1.64639965 0 0 Z " fill="#B37260" transform="translate(247,115)"/>
<path d="M0 0 C0 1.65 0 3.3 0 5 C-2.97 5 -5.94 5 -9 5 C-2.40909091 0 -2.40909091 0 0 0 Z " fill="#ADB2D7" transform="translate(514,149)"/>
<path d="M0 0 C0.33 0 0.66 0 1 0 C2.19287411 3.87684087 3 6.91621923 3 11 C2.01 11 1.02 11 0 11 C-0.19406478 9.35492782 -0.38007935 7.70890406 -0.5625 6.0625 C-0.66691406 5.14597656 -0.77132812 4.22945313 -0.87890625 3.28515625 C-0.91886719 2.53105469 -0.95882812 1.77695313 -1 1 C-0.67 0.67 -0.34 0.34 0 0 Z " fill="#AE6757" transform="translate(530,111)"/>
<path d="M0 0 C3.3 0 6.6 0 10 0 C10 0.66 10 1.32 10 2 C6.04 2.66 2.08 3.32 -2 4 C-2 3.34 -2 2.68 -2 2 C-1.34 2 -0.68 2 0 2 C0 1.34 0 0.68 0 0 Z " fill="#F0E1E0" transform="translate(452,89)"/>
<path d="M0 0 C0.66 0.33 1.32 0.66 2 1 C1.54625 1.5775 1.0925 2.155 0.625 2.75 C-0.84113516 4.7800333 -1.94857784 6.73539843 -3 9 C-4.0625 7.1875 -4.0625 7.1875 -5 5 C-4.67 4.01 -4.34 3.02 -4 2 C-2.68 2 -1.36 2 0 2 C0 1.34 0 0.68 0 0 Z " fill="#A6989D" transform="translate(58,162)"/>
<path d="M0 0 C0.33 0 0.66 0 1 0 C1.0825 1.216875 1.165 2.43375 1.25 3.6875 C1.73758372 7.78465871 3.09510536 10.00139908 6 13 C4.35 13 2.7 13 1 13 C0.1276588 10.00519083 -0.10829766 7.36424089 -0.0625 4.25 C-0.05347656 3.45078125 -0.04445313 2.6515625 -0.03515625 1.828125 C-0.02355469 1.22484375 -0.01195313 0.6215625 0 0 Z " fill="#91838B" transform="translate(66,159)"/>
<path d="M0 0 C0.99 0.33 1.98 0.66 3 1 C2.67 2.65 2.34 4.3 2 6 C0.68 6 -0.64 6 -2 6 C-1.34 4.02 -0.68 2.04 0 0 Z " fill="#CBCDCE" transform="translate(446,152)"/>
<path d="M0 0 C1.32 1.65 2.64 3.3 4 5 C3.34 5.66 2.68 6.32 2 7 C0.68 7 -0.64 7 -2 7 C-1.125 2.25 -1.125 2.25 0 0 Z " fill="#8F80A9" transform="translate(510,121)"/>
<path d="M0 0 C0.99 0 1.98 0 3 0 C2.67 1.65 2.34 3.3 2 5 C0.02 5 -1.96 5 -4 5 C-3.67 4.01 -3.34 3.02 -3 2 C-2.34 2 -1.68 2 -1 2 C-0.67 1.34 -0.34 0.68 0 0 Z " fill="#C8CEE2" transform="translate(473,96)"/>
<path d="M0 0 C1.65 0.99 3.3 1.98 5 3 C4.67 3.66 4.34 4.32 4 5 C3.01 5 2.02 5 1 5 C1 5.66 1 6.32 1 7 C0.34 7 -0.32 7 -1 7 C-0.67 4.69 -0.34 2.38 0 0 Z " fill="#D0C6C8" transform="translate(501,138)"/>
<path d="M0 0 C4.62 0.66 9.24 1.32 14 2 C14 2.33 14 2.66 14 3 C7.565 3.495 7.565 3.495 1 4 C0.67 2.68 0.34 1.36 0 0 Z " fill="#8D88B5" transform="translate(59,136)"/>
<path d="M0 0 C2.375 0.25 2.375 0.25 5 1 C6.3125 3.0625 6.3125 3.0625 7 5 C4.03824877 4.38722388 2.61941217 3.74627478 0 2 C0 1.34 0 0.68 0 0 Z " fill="#CF8F77" transform="translate(70,117)"/>
<path d="M0 0 C1.32 0.33 2.64 0.66 4 1 C4 1.99 4 2.98 4 4 C2.02 4 0.04 4 -2 4 C-1.34 2.68 -0.68 1.36 0 0 Z " fill="#F4F6FE" transform="translate(292,80)"/>
<path d="M0 0 C0.66 0 1.32 0 2 0 C2.125 2.875 2.125 2.875 2 6 C1.34 6.66 0.68 7.32 0 8 C-0.38063221 5.6739143 -0.71269945 3.33944736 -1 1 C-0.67 0.67 -0.34 0.34 0 0 Z " fill="#D6D4E5" transform="translate(69,162)"/>
<path d="M0 0 C3.3 0 6.6 0 10 0 C8.35 1.32 6.7 2.64 5 4 C3 3 3 3 0 0 Z " fill="#E7EBF9" transform="translate(273,148)"/>
<path d="M0 0 C0.66 0.33 1.32 0.66 2 1 C0.88671875 2.51953125 0.88671875 2.51953125 -1 4 C-3.91796875 4.07421875 -3.91796875 4.07421875 -7.1875 3.6875 C-8.27417969 3.56761719 -9.36085938 3.44773438 -10.48046875 3.32421875 C-11.31191406 3.21722656 -12.14335937 3.11023438 -13 3 C-13 2.67 -13 2.34 -13 2 C-12.14535156 1.93941406 -11.29070312 1.87882813 -10.41015625 1.81640625 C-8.75306641 1.69072266 -8.75306641 1.69072266 -7.0625 1.5625 C-5.96035156 1.48128906 -4.85820312 1.40007812 -3.72265625 1.31640625 C-1.08890097 1.29581916 -1.08890097 1.29581916 0 0 Z " fill="#F4ECEA" transform="translate(503,133)"/>
<path d="M0 0 C0.99 0.33 1.98 0.66 3 1 C1.02 3.31 -0.96 5.62 -3 8 C-3 4.42424104 -1.91159393 2.94704065 0 0 Z " fill="#B76747" transform="translate(508,128)"/>
<path d="M0 0 C1.98 0.99 1.98 0.99 4 2 C4 2.66 4 3.32 4 4 C4.66 4.66 5.32 5.32 6 6 C4.35 6 2.7 6 1 6 C0.67 4.02 0.34 2.04 0 0 Z " fill="#625A6E" transform="translate(244,168)"/>
<path d="M0 0 C1.55913346 3.11826692 0.66585225 5.67073874 0 9 C-0.99 9.495 -0.99 9.495 -2 10 C-3.06351675 6.61608307 -3.21442982 5.4195366 -1.5625 2.1875 C-1.046875 1.465625 -0.53125 0.74375 0 0 Z " fill="#E8E7E9" transform="translate(241,126)"/>
<path d="M0 0 C0.99 0 1.98 0 3 0 C3.33 1.65 3.66 3.3 4 5 C2.68 5 1.36 5 0 5 C0 3.35 0 1.7 0 0 Z " fill="#475274" transform="translate(520,154)"/>
<path d="M0 0 C0.33 0 0.66 0 1 0 C1.33 2.31 1.66 4.62 2 7 C0.68 7 -0.64 7 -2 7 C-1.125 2.25 -1.125 2.25 0 0 Z " fill="#B5664C" transform="translate(68,115)"/>
<path d="M0 0 C1.2065625 0.0309375 1.2065625 0.0309375 2.4375 0.0625 C1.4784375 0.7121875 1.4784375 0.7121875 0.5 1.375 C-1.82996003 2.97489177 -1.82996003 2.97489177 -2.5625 6.0625 C-3.2225 6.0625 -3.8825 6.0625 -4.5625 6.0625 C-3.48963568 0.08511307 -3.48963568 0.08511307 0 0 Z " fill="#2E397E" transform="translate(291.5625,77.9375)"/>
</svg>
